<?xml version="1.0" encoding="utf-8"?>
<!-- Generator: Adobe Illustrator 22.0.1, SVG Export Plug-In . SVG Version: 6.00 Build 0)  -->
<svg version="1.1" id="Capa_1" xmlns="http://www.w3.org/2000/svg" xmlns:xlink="http://www.w3.org/1999/xlink" x="0px" y="0px"
	 viewBox="0 0 247.5 160.6" style="enable-background:new 0 0 247.5 160.6;" xml:space="preserve">
<style type="text/css">
	.st0{enable-background:new    ;}
	.st1{fill:#FFFFFF;}
</style>
<g>
	<g class="st0">
		<path class="st1" d="M30.6,65c-0.3-0.3-0.4-0.6-0.4-1V39.9c0-0.4,0.1-0.7,0.4-1c0.3-0.3,0.6-0.4,1-0.4c0.4,0,0.7,0.1,0.9,0.4
			c0.3,0.3,0.4,0.6,0.4,1v22.8h7c0.4,0,0.7,0.1,0.9,0.4c0.3,0.3,0.4,0.6,0.4,1s-0.1,0.7-0.4,1c-0.3,0.3-0.6,0.4-0.9,0.4h-8.4
			C31.2,65.3,30.9,65.2,30.6,65z"/>
		<path class="st1" d="M50.7,65.5c-0.9,0-1.7-0.2-2.5-0.5c-0.8-0.3-1.4-0.8-2-1.4c-0.6-0.6-1-1.2-1.4-2c-0.3-0.8-0.5-1.6-0.5-2.5
			V44.9c0-0.9,0.2-1.7,0.5-2.5c0.3-0.8,0.8-1.5,1.4-2c0.6-0.6,1.2-1,2-1.4c0.8-0.3,1.6-0.5,2.5-0.5c0.9,0,1.7,0.2,2.5,0.5
			c0.8,0.3,1.5,0.8,2,1.4c0.6,0.6,1,1.2,1.4,2c0.3,0.8,0.5,1.6,0.5,2.5v14.2c0,0.9-0.2,1.7-0.5,2.5c-0.3,0.8-0.8,1.4-1.4,2
			c-0.6,0.6-1.2,1-2,1.4C52.3,65.3,51.5,65.5,50.7,65.5z M50.7,41.2c-1,0-1.9,0.4-2.6,1.1S47,43.9,47,44.9v14.2c0,1,0.4,1.9,1.1,2.6
			c0.7,0.7,1.6,1.1,2.6,1.1c1,0,1.9-0.4,2.6-1.1c0.7-0.7,1.1-1.6,1.1-2.6V44.9c0-0.5-0.1-1-0.3-1.4c-0.2-0.4-0.5-0.8-0.8-1.2
			c-0.3-0.3-0.7-0.6-1.2-0.8S51.2,41.2,50.7,41.2z"/>
		<path class="st1" d="M75.6,65.5c-0.3,0.1-0.6,0.1-0.9-0.1c-0.3-0.1-0.5-0.3-0.6-0.6c-1.2-2.4-2.3-4.8-3.4-7.1c-0.5-1-1-2-1.5-3.1
			c-0.5-1.1-1-2.1-1.5-3.2c-0.5-1-1-2.1-1.4-3c-0.5-1-0.9-1.9-1.3-2.7v18.4c0,0.4-0.1,0.7-0.4,1s-0.6,0.4-1,0.4
			c-0.4,0-0.7-0.1-1-0.4s-0.4-0.6-0.4-1V39.9c0-0.3,0.1-0.6,0.3-0.8c0.2-0.3,0.4-0.4,0.8-0.5c0.3-0.1,0.6,0,0.9,0.1
			c0.3,0.1,0.5,0.3,0.6,0.6c1.1,2.4,2.3,4.8,3.4,7.1c0.5,1,1,2,1.5,3.1c0.5,1.1,1,2.1,1.5,3.2c0.5,1,1,2.1,1.5,3
			c0.5,1,0.9,1.9,1.3,2.7V39.9c0-0.4,0.1-0.7,0.4-1c0.3-0.3,0.6-0.4,1-0.4c0.4,0,0.7,0.1,1,0.4c0.3,0.3,0.4,0.6,0.4,1v24.3
			c0,0.3-0.1,0.6-0.3,0.8C76.1,65.2,75.9,65.4,75.6,65.5z"/>
		<path class="st1" d="M86.5,65.3c-1.4-0.4-2.6-1.2-3.4-2.3c-0.9-1.1-1.3-2.4-1.3-3.9V44.9c0-1.5,0.4-2.7,1.3-3.9
			c0.9-1.1,2-1.9,3.4-2.3c0.7-0.2,1.4-0.3,2.1-0.2c0.7,0.1,1.4,0.2,2,0.5c0.6,0.3,1.2,0.6,1.7,1.1c0.5,0.5,1,1,1.3,1.6
			c0.2,0.3,0.2,0.6,0.1,1c-0.1,0.4-0.3,0.6-0.6,0.8c-0.3,0.2-0.6,0.2-1,0.1c-0.4-0.1-0.6-0.3-0.8-0.6c-0.4-0.7-1-1.2-1.8-1.6
			c-0.8-0.3-1.6-0.4-2.4-0.1c-0.8,0.2-1.5,0.7-2,1.3c-0.5,0.7-0.8,1.4-0.8,2.2v14.2c0,0.8,0.3,1.6,0.8,2.2c0.5,0.7,1.2,1.1,2,1.3
			c0.8,0.2,1.6,0.2,2.4-0.1c0.8-0.3,1.4-0.8,1.8-1.6c0.2-0.3,0.5-0.5,0.8-0.6c0.4-0.1,0.7-0.1,1,0.1c0.3,0.2,0.5,0.5,0.6,0.8
			c0.1,0.4,0.1,0.7-0.1,1c-0.4,0.6-0.8,1.2-1.3,1.6c-0.5,0.4-1.1,0.8-1.7,1.1c-0.6,0.3-1.3,0.4-2,0.5C87.9,65.5,87.2,65.5,86.5,65.3
			z"/>
		<path class="st1" d="M108.9,38.9c0.3-0.3,0.6-0.4,0.9-0.4c0.4,0,0.7,0.1,1,0.4c0.3,0.3,0.4,0.6,0.4,1v24.3c0,0.4-0.1,0.7-0.4,1
			s-0.6,0.4-1,0.4c-0.4,0-0.7-0.1-0.9-0.4c-0.3-0.3-0.4-0.6-0.4-1V52.9h-7.4v11.2c0,0.4-0.1,0.7-0.4,1s-0.6,0.4-1,0.4
			c-0.4,0-0.7-0.1-0.9-0.4c-0.3-0.3-0.4-0.6-0.4-1V39.9c0-0.4,0.1-0.7,0.4-1c0.3-0.3,0.6-0.4,0.9-0.4c0.4,0,0.7,0.1,1,0.4
			c0.3,0.3,0.4,0.6,0.4,1v10.4h7.4V39.9C108.5,39.5,108.6,39.2,108.9,38.9z"/>
		<path class="st1" d="M116.8,40c0-0.4,0.1-0.7,0.4-1s0.6-0.4,1-0.4h8.4c0.4,0,0.7,0.1,1,0.4s0.4,0.6,0.4,1s-0.1,0.7-0.4,1
			c-0.3,0.3-0.6,0.4-1,0.4h-7v8.9h6.2c0.4,0,0.7,0.1,1,0.4s0.4,0.6,0.4,1s-0.1,0.7-0.4,1s-0.6,0.4-1,0.4h-6.2v9.7h7
			c0.4,0,0.7,0.1,1,0.4s0.4,0.6,0.4,1s-0.1,0.7-0.4,1s-0.6,0.4-1,0.4h-8.4c-0.4,0-0.7-0.1-1-0.4s-0.4-0.6-0.4-1V40z"/>
		<path class="st1" d="M144.9,47.4c0,1.3-0.4,2.5-1.1,3.6c-0.7,1.1-1.7,1.8-2.8,2.3l3.9,10.4c0.1,0.3,0.1,0.7,0,1s-0.4,0.6-0.8,0.7
			c-0.3,0.1-0.7,0.1-1,0c-0.3-0.2-0.6-0.4-0.7-0.8l-4-10.8h-3.4v10.4c0,0.4-0.1,0.7-0.4,1s-0.6,0.4-1,0.4c-0.4,0-0.7-0.1-0.9-0.4
			c-0.3-0.3-0.4-0.6-0.4-1V40c0-0.4,0.1-0.7,0.4-1c0.3-0.3,0.6-0.4,0.9-0.4h5c0.9,0,1.7,0.2,2.5,0.5c0.8,0.3,1.5,0.8,2,1.4
			c0.6,0.6,1,1.2,1.4,2s0.5,1.6,0.5,2.5V47.4z M138.6,51.1c1,0,1.9-0.4,2.6-1.1c0.7-0.7,1.1-1.6,1.1-2.6v-2.3c0-1-0.4-1.9-1.1-2.6
			c-0.7-0.7-1.6-1.1-2.6-1.1h-3.7v9.7H138.6z"/>
		<path class="st1" d="M163.8,63.8c0.1,0.4,0.1,0.7-0.1,1c-0.2,0.3-0.5,0.5-0.9,0.6c-0.4,0.1-0.7,0.1-1-0.1
			c-0.3-0.2-0.5-0.5-0.6-0.8c-0.1-0.4-0.2-0.9-0.4-1.4c-0.1-0.4-0.3-1-0.4-1.5s-0.3-1.2-0.5-2h-8.1c-0.2,0.7-0.4,1.4-0.5,2
			c-0.1,0.6-0.3,1.1-0.4,1.5c-0.1,0.5-0.3,1-0.4,1.4c-0.1,0.4-0.3,0.6-0.6,0.8c-0.3,0.2-0.7,0.2-1,0.1c-0.4-0.1-0.6-0.3-0.8-0.6
			s-0.2-0.6-0.1-1l6.7-24.3c0.1-0.3,0.2-0.5,0.5-0.7c0.2-0.2,0.5-0.3,0.8-0.3c0.3,0,0.6,0.1,0.8,0.3c0.2,0.2,0.4,0.4,0.5,0.7
			L163.8,63.8z M159.1,57c-0.3-1-0.6-2.1-0.9-3.2c-0.3-1.1-0.6-2.2-0.9-3.2c-0.3-1.1-0.6-2.1-0.8-3c-0.3-1-0.5-1.8-0.7-2.6
			c-0.2,0.8-0.5,1.6-0.7,2.6c-0.3,1-0.5,2-0.8,3c-0.3,1.1-0.6,2.1-0.9,3.2s-0.6,2.2-0.9,3.2H159.1z"/>
		<path class="st1" d="M174.9,62c0.9-0.7,1.5-1.6,1.5-2.8c0.1-0.6,0-1.1-0.2-1.6c-0.2-0.5-0.5-1-0.9-1.4l-6.7-6.9
			c-0.6-0.6-1.1-1.4-1.4-2.3c-0.3-0.9-0.4-1.7-0.3-2.6c0.1-0.9,0.3-1.8,0.8-2.6c0.4-0.8,1-1.5,1.8-2c0.7-0.6,1.5-0.9,2.4-1.2
			c0.9-0.2,1.8-0.2,2.7,0c0.9,0.2,1.7,0.6,2.4,1.1c0.7,0.5,1.3,1.2,1.8,2c0.2,0.3,0.2,0.6,0.1,1s-0.3,0.6-0.6,0.8
			c-0.3,0.2-0.6,0.2-1,0.1c-0.4-0.1-0.6-0.3-0.8-0.6c-0.6-0.9-1.4-1.5-2.5-1.8c-1.1-0.2-2.1,0-3,0.7c-0.9,0.6-1.3,1.5-1.4,2.6
			c-0.1,1.1,0.3,2,1,2.8l6.7,6.9c0.6,0.7,1.1,1.4,1.4,2.3c0.3,0.9,0.5,1.8,0.4,2.7c-0.1,0.9-0.3,1.8-0.8,2.7c-0.4,0.8-1,1.5-1.8,2.1
			c-0.8,0.6-1.6,0.9-2.5,1.2s-1.8,0.2-2.8,0c-0.9-0.2-1.8-0.6-2.5-1.1c-0.8-0.5-1.4-1.2-1.9-2c-0.2-0.3-0.2-0.7-0.1-1
			c0.1-0.3,0.3-0.6,0.6-0.8c0.3-0.2,0.6-0.2,1-0.1s0.6,0.3,0.8,0.6c0.3,0.5,0.6,0.9,1.1,1.2c0.4,0.3,0.9,0.5,1.5,0.6
			C173,63,174,62.7,174.9,62z"/>
	</g>
	<g class="st0">
		<path class="st1" d="M43.6,102.4c-0.3,0.1-0.6,0.1-0.9-0.1c-0.3-0.1-0.5-0.3-0.6-0.6c-1.2-2.4-2.3-4.8-3.4-7.1c-0.5-1-1-2-1.5-3.1
			c-0.5-1.1-1-2.1-1.5-3.2c-0.5-1-1-2.1-1.4-3c-0.5-1-0.9-1.9-1.3-2.7v18.4c0,0.4-0.1,0.7-0.4,1s-0.6,0.4-1,0.4
			c-0.4,0-0.7-0.1-1-0.4s-0.4-0.6-0.4-1V76.8c0-0.3,0.1-0.6,0.3-0.8c0.2-0.3,0.4-0.4,0.8-0.5c0.3-0.1,0.6,0,0.9,0.1
			c0.3,0.1,0.5,0.3,0.6,0.6c1.1,2.4,2.3,4.8,3.4,7.1c0.5,1,1,2,1.5,3.1c0.5,1.1,1,2.1,1.5,3.2c0.5,1,1,2.1,1.5,3
			c0.5,1,0.9,1.9,1.3,2.7V76.8c0-0.4,0.1-0.7,0.4-1c0.3-0.3,0.6-0.4,1-0.4c0.4,0,0.7,0.1,1,0.4c0.3,0.3,0.4,0.6,0.4,1v24.3
			c0,0.3-0.1,0.6-0.3,0.8C44.1,102.1,43.9,102.3,43.6,102.4z"/>
		<path class="st1" d="M53.7,98.6c0.7,0.7,1.6,1.1,2.6,1.1c1,0,1.9-0.4,2.6-1.1c0.7-0.7,1.1-1.6,1.1-2.6V76.8c0-0.4,0.1-0.7,0.4-1
			c0.3-0.3,0.6-0.4,1-0.4c0.4,0,0.7,0.1,0.9,0.4c0.3,0.3,0.4,0.6,0.4,1V96c0,0.9-0.2,1.7-0.5,2.5c-0.3,0.8-0.8,1.4-1.4,2
			c-0.6,0.6-1.3,1-2,1.4c-0.8,0.3-1.6,0.5-2.4,0.5c-0.9,0-1.7-0.2-2.5-0.5c-0.8-0.3-1.4-0.8-2-1.4c-0.6-0.6-1-1.2-1.4-2
			C50.2,97.8,50,96.9,50,96V76.8c0-0.4,0.1-0.7,0.4-1c0.3-0.3,0.6-0.4,1-0.4c0.4,0,0.7,0.1,0.9,0.4c0.3,0.3,0.4,0.6,0.4,1V96
			C52.7,97.1,53,97.9,53.7,98.6z"/>
		<path class="st1" d="M78.7,75.6c0.4,0,0.7,0.1,1,0.4c0.3,0.3,0.4,0.6,0.4,1s-0.1,0.7-0.4,1c-0.3,0.3-0.6,0.4-1,0.4h-4.1v22.8
			c0,0.4-0.1,0.7-0.4,1c-0.3,0.3-0.6,0.4-1,0.4c-0.4,0-0.7-0.1-0.9-0.4s-0.4-0.6-0.4-1l0-22.8h-4.1c-0.4,0-0.7-0.1-0.9-0.4
			c-0.3-0.3-0.4-0.6-0.4-1s0.1-0.7,0.4-1c0.3-0.3,0.6-0.4,0.9-0.4H78.7z"/>
		<path class="st1" d="M96.7,84.3c0,1.3-0.4,2.5-1.1,3.6c-0.7,1.1-1.7,1.8-2.8,2.3l3.9,10.4c0.1,0.3,0.1,0.7,0,1
			c-0.2,0.3-0.4,0.6-0.8,0.7c-0.3,0.1-0.7,0.1-1,0c-0.3-0.2-0.6-0.4-0.7-0.8l-4-10.8h-3.4v10.4c0,0.4-0.1,0.7-0.4,1s-0.6,0.4-1,0.4
			c-0.4,0-0.7-0.1-0.9-0.4c-0.3-0.3-0.4-0.6-0.4-1V76.9c0-0.4,0.1-0.7,0.4-1c0.3-0.3,0.6-0.4,0.9-0.4h5c0.9,0,1.7,0.2,2.5,0.5
			c0.8,0.3,1.5,0.8,2,1.4c0.6,0.6,1,1.2,1.4,2s0.5,1.6,0.5,2.5V84.3z M90.3,88c1,0,1.9-0.4,2.6-1.1c0.7-0.7,1.1-1.6,1.1-2.6V82
			c0-1-0.4-1.9-1.1-2.6c-0.7-0.7-1.6-1.1-2.6-1.1h-3.7V88H90.3z"/>
		<path class="st1" d="M102.7,102.4c-0.4,0-0.7-0.1-0.9-0.4c-0.3-0.3-0.4-0.6-0.4-1V76.8c0-0.4,0.1-0.7,0.4-1
			c0.3-0.3,0.6-0.4,0.9-0.4c0.4,0,0.7,0.1,1,0.4c0.3,0.3,0.4,0.6,0.4,1v24.3c0,0.4-0.1,0.7-0.4,1S103.1,102.4,102.7,102.4z"/>
		<path class="st1" d="M120.3,75.6c0.4,0,0.7,0.1,1,0.4c0.3,0.3,0.4,0.6,0.4,1s-0.1,0.7-0.4,1c-0.3,0.3-0.6,0.4-1,0.4h-4.1v22.8
			c0,0.4-0.1,0.7-0.4,1c-0.3,0.3-0.6,0.4-1,0.4c-0.4,0-0.7-0.1-0.9-0.4s-0.4-0.6-0.4-1l0-22.8h-4.1c-0.4,0-0.7-0.1-0.9-0.4
			c-0.3-0.3-0.4-0.6-0.4-1s0.1-0.7,0.4-1c0.3-0.3,0.6-0.4,0.9-0.4H120.3z"/>
		<path class="st1" d="M127,102.4c-0.4,0-0.7-0.1-0.9-0.4c-0.3-0.3-0.4-0.6-0.4-1V76.8c0-0.4,0.1-0.7,0.4-1c0.3-0.3,0.6-0.4,0.9-0.4
			c0.4,0,0.7,0.1,1,0.4c0.3,0.3,0.4,0.6,0.4,1v24.3c0,0.4-0.1,0.7-0.4,1S127.4,102.4,127,102.4z"/>
		<path class="st1" d="M132.6,77.2c-0.1-0.4-0.1-0.7,0.1-1c0.2-0.3,0.5-0.5,0.8-0.6c0.4-0.1,0.7,0,1,0.1s0.5,0.5,0.6,0.8
			c0.7,2.6,1.4,5.1,2.1,7.5c0.3,1,0.6,2.1,0.9,3.2c0.3,1.1,0.6,2.2,0.9,3.2c0.3,1.1,0.6,2.1,0.8,3.1s0.5,1.8,0.7,2.6
			c0.2-0.8,0.4-1.6,0.7-2.6c0.3-1,0.5-2,0.8-3.1c0.3-1.1,0.6-2.1,0.9-3.2c0.3-1.1,0.6-2.2,0.9-3.2c0.7-2.4,1.4-4.9,2.1-7.5
			c0.1-0.4,0.3-0.6,0.6-0.8c0.3-0.2,0.7-0.2,1-0.1c0.4,0.1,0.6,0.3,0.8,0.6c0.2,0.3,0.2,0.7,0.1,1l-6.7,24.3
			c-0.1,0.3-0.2,0.5-0.4,0.7c-0.2,0.2-0.5,0.3-0.8,0.3s-0.6-0.1-0.8-0.3c-0.2-0.2-0.4-0.4-0.5-0.7L132.6,77.2z"/>
		<path class="st1" d="M165.3,100.7c0.1,0.4,0.1,0.7-0.1,1c-0.2,0.3-0.5,0.5-0.9,0.6c-0.4,0.1-0.7,0.1-1-0.1
			c-0.3-0.2-0.5-0.5-0.6-0.8c-0.1-0.4-0.2-0.9-0.4-1.4c-0.1-0.4-0.3-1-0.4-1.5s-0.3-1.2-0.5-2h-8.1c-0.2,0.7-0.4,1.4-0.5,2
			c-0.1,0.6-0.3,1.1-0.4,1.5c-0.1,0.5-0.3,1-0.4,1.4c-0.1,0.4-0.3,0.6-0.6,0.8c-0.3,0.2-0.7,0.2-1,0.1c-0.4-0.1-0.6-0.3-0.8-0.6
			s-0.2-0.6-0.1-1l6.7-24.3c0.1-0.3,0.2-0.5,0.5-0.7c0.2-0.2,0.5-0.3,0.8-0.3c0.3,0,0.6,0.1,0.8,0.3c0.2,0.2,0.4,0.4,0.5,0.7
			L165.3,100.7z M160.6,93.9c-0.3-1-0.6-2.1-0.9-3.2c-0.3-1.1-0.6-2.2-0.9-3.2c-0.3-1.1-0.6-2.1-0.8-3c-0.3-1-0.5-1.8-0.7-2.6
			c-0.2,0.8-0.5,1.6-0.7,2.6c-0.3,1-0.5,2-0.8,3c-0.3,1.1-0.6,2.1-0.9,3.2s-0.6,2.2-0.9,3.2H160.6z"/>
		<path class="st1" d="M176.4,98.9c0.9-0.7,1.5-1.6,1.5-2.8c0.1-0.6,0-1.1-0.2-1.6c-0.2-0.5-0.5-1-0.9-1.4l-6.7-6.9
			c-0.6-0.6-1.1-1.4-1.4-2.3c-0.3-0.9-0.4-1.7-0.3-2.6c0.1-0.9,0.3-1.8,0.8-2.6c0.4-0.8,1-1.5,1.8-2c0.7-0.6,1.5-0.9,2.4-1.2
			c0.9-0.2,1.8-0.2,2.7,0c0.9,0.2,1.7,0.6,2.4,1.1c0.7,0.5,1.3,1.2,1.8,2c0.2,0.3,0.2,0.6,0.1,1s-0.3,0.6-0.6,0.8
			c-0.3,0.2-0.6,0.2-1,0.1c-0.4-0.1-0.6-0.3-0.8-0.6c-0.6-0.9-1.4-1.5-2.5-1.8c-1.1-0.2-2.1,0-3,0.7c-0.9,0.6-1.3,1.5-1.4,2.6
			c-0.1,1.1,0.3,2,1,2.8l6.7,6.9c0.6,0.7,1.1,1.4,1.4,2.3c0.3,0.9,0.5,1.8,0.4,2.7c-0.1,0.9-0.3,1.8-0.8,2.7c-0.4,0.8-1,1.5-1.8,2.1
			c-0.8,0.6-1.6,0.9-2.5,1.2s-1.8,0.2-2.8,0c-0.9-0.2-1.8-0.6-2.5-1.1c-0.8-0.5-1.4-1.2-1.9-2c-0.2-0.3-0.2-0.7-0.1-1
			c0.1-0.3,0.3-0.6,0.6-0.8c0.3-0.2,0.6-0.2,1-0.1s0.6,0.3,0.8,0.6c0.3,0.5,0.6,0.9,1.1,1.2c0.4,0.3,0.9,0.5,1.5,0.6
			C174.4,99.9,175.5,99.6,176.4,98.9z"/>
	</g>
	<g class="st0">
		<path class="st1" d="M32.3,131.4c-0.5,0-0.9-0.1-1.3-0.3c-0.4-0.2-0.8-0.4-1.1-0.7c-0.3-0.3-0.6-0.7-0.7-1.1
			c-0.2-0.4-0.3-0.8-0.3-1.3v-5c0-0.5,0.1-0.9,0.3-1.3c0.2-0.4,0.4-0.8,0.7-1.1c0.3-0.3,0.7-0.6,1.1-0.7c0.4-0.2,0.8-0.3,1.3-0.3
			h1.8v-4.5c0-0.2,0.1-0.4,0.2-0.6c0.1-0.1,0.3-0.2,0.6-0.2c0.2,0,0.4,0.1,0.5,0.2c0.2,0.1,0.2,0.3,0.2,0.6v15.5
			c0,0.2-0.1,0.4-0.2,0.6c-0.2,0.1-0.3,0.2-0.5,0.2H32.3z M32.3,121.2c-0.5,0-0.9,0.2-1.3,0.5s-0.5,0.8-0.5,1.3v5
			c0,0.5,0.2,0.9,0.5,1.3s0.8,0.5,1.3,0.5h1.8v-8.7H32.3z"/>
		<path class="st1" d="M41.1,131.3c-0.6-0.3-1.2-0.7-1.5-1.2c-0.4-0.6-0.6-1.2-0.6-1.9v-5.2c0-0.5,0.1-0.9,0.3-1.3
			c0.2-0.4,0.4-0.8,0.7-1.1c0.3-0.3,0.7-0.6,1.1-0.7c0.4-0.2,0.8-0.3,1.3-0.3s0.9,0.1,1.3,0.3c0.4,0.2,0.8,0.4,1.1,0.7
			c0.3,0.3,0.6,0.7,0.7,1.1c0.2,0.4,0.3,0.8,0.3,1.3v2.6c0,0.2-0.1,0.4-0.2,0.6c-0.1,0.1-0.3,0.2-0.6,0.2h-4.4v1.8
			c0,0.4,0.1,0.7,0.3,1c0.2,0.3,0.5,0.5,0.8,0.7c0.3,0.1,0.7,0.2,1.1,0.1c0.4-0.1,0.7-0.2,0.9-0.5c0.2-0.2,0.3-0.2,0.6-0.2
			s0.4,0.1,0.6,0.2c0.2,0.1,0.2,0.3,0.2,0.5c0,0.2-0.1,0.4-0.2,0.6c-0.5,0.5-1.1,0.8-1.7,0.9C42.4,131.6,41.7,131.5,41.1,131.3z
			 M42.4,121.1c-0.5,0-0.9,0.2-1.3,0.5s-0.5,0.8-0.5,1.3v1.8h3.7v-1.8c0-0.5-0.2-0.9-0.5-1.3C43.3,121.3,42.9,121.1,42.4,121.1z"/>
		<path class="st1" d="M54.7,131.4c-0.2,0-0.4-0.1-0.6-0.2c-0.1-0.1-0.2-0.3-0.2-0.6v-15.5c0-0.2,0.1-0.4,0.2-0.6
			c0.1-0.1,0.3-0.2,0.6-0.2c0.2,0,0.4,0.1,0.5,0.2c0.2,0.1,0.2,0.3,0.2,0.6v4.5h1.8c0.5,0,0.9,0.1,1.3,0.3c0.4,0.2,0.8,0.4,1.1,0.7
			c0.3,0.3,0.5,0.7,0.7,1.1c0.2,0.4,0.3,0.8,0.3,1.3v5c0,0.5-0.1,0.9-0.3,1.3c-0.2,0.4-0.4,0.8-0.7,1.1c-0.3,0.3-0.7,0.6-1.1,0.7
			c-0.4,0.2-0.8,0.3-1.3,0.3H54.7z M55.5,121.2v8.7h1.8c0.5,0,0.9-0.2,1.3-0.5c0.4-0.4,0.5-0.8,0.5-1.3v-5c0-0.5-0.2-0.9-0.5-1.3
			c-0.4-0.4-0.8-0.5-1.3-0.5H55.5z"/>
		<path class="st1" d="M65.9,131.2c-0.4-0.2-0.8-0.4-1.1-0.7c-0.3-0.3-0.6-0.7-0.7-1.1c-0.2-0.4-0.3-0.8-0.3-1.3v-7.7
			c0-0.2,0.1-0.4,0.2-0.6c0.1-0.1,0.3-0.2,0.6-0.2c0.2,0,0.4,0.1,0.6,0.2c0.1,0.1,0.2,0.3,0.2,0.6v7.7c0,0.5,0.2,0.9,0.5,1.3
			c0.4,0.4,0.8,0.5,1.3,0.5h1.8v-9.5c0-0.2,0.1-0.4,0.2-0.6c0.1-0.1,0.3-0.2,0.6-0.2s0.4,0.1,0.6,0.2c0.1,0.1,0.2,0.3,0.2,0.6v10.3
			c0,0.2-0.1,0.4-0.2,0.6c-0.1,0.1-0.3,0.2-0.6,0.2h-2.6C66.8,131.4,66.3,131.4,65.9,131.2z"/>
		<path class="st1" d="M76,131.3c-0.6-0.3-1.2-0.7-1.5-1.2c-0.4-0.6-0.6-1.2-0.6-1.9v-5.2c0-0.5,0.1-0.9,0.3-1.3
			c0.2-0.4,0.4-0.8,0.7-1.1c0.3-0.3,0.7-0.6,1.1-0.7c0.4-0.2,0.8-0.3,1.3-0.3s0.9,0.1,1.3,0.3c0.4,0.2,0.8,0.4,1.1,0.7
			c0.3,0.3,0.6,0.7,0.7,1.1c0.2,0.4,0.3,0.8,0.3,1.3v2.6c0,0.2-0.1,0.4-0.2,0.6c-0.1,0.1-0.3,0.2-0.6,0.2h-4.4v1.8
			c0,0.4,0.1,0.7,0.3,1c0.2,0.3,0.5,0.5,0.8,0.7c0.3,0.1,0.7,0.2,1.1,0.1c0.4-0.1,0.7-0.2,0.9-0.5c0.2-0.2,0.3-0.2,0.6-0.2
			s0.4,0.1,0.6,0.2c0.2,0.1,0.2,0.3,0.2,0.5c0,0.2-0.1,0.4-0.2,0.6c-0.5,0.5-1.1,0.8-1.7,0.9C77.3,131.6,76.7,131.5,76,131.3z
			 M77.3,121.1c-0.5,0-0.9,0.2-1.3,0.5s-0.5,0.8-0.5,1.3v1.8h3.7v-1.8c0-0.5-0.2-0.9-0.5-1.3C78.3,121.3,77.9,121.1,77.3,121.1z"/>
		<path class="st1" d="M84.7,131.5c-0.2,0-0.4-0.1-0.6-0.2c-0.1-0.1-0.2-0.3-0.2-0.6v-10.3c0-0.2,0.1-0.4,0.2-0.6
			c0.1-0.1,0.3-0.2,0.6-0.2h2.6c0.5,0,0.9,0.1,1.3,0.3c0.4,0.2,0.8,0.4,1.1,0.7c0.3,0.3,0.5,0.7,0.7,1.1c0.2,0.4,0.3,0.8,0.3,1.3
			v7.7c0,0.2-0.1,0.4-0.2,0.6c-0.2,0.1-0.3,0.2-0.5,0.2c-0.2,0-0.4-0.1-0.6-0.2c-0.1-0.1-0.2-0.3-0.2-0.6V123c0-0.5-0.2-0.9-0.5-1.3
			c-0.4-0.4-0.8-0.5-1.3-0.5h-1.8v9.5c0,0.2-0.1,0.4-0.2,0.6C85,131.5,84.9,131.5,84.7,131.5z"/>
		<path class="st1" d="M98.3,124.7v-1.8c0-0.4-0.1-0.7-0.3-1c-0.2-0.3-0.5-0.5-0.8-0.7c-0.3-0.1-0.7-0.2-1-0.1
			c-0.3,0.1-0.6,0.2-0.9,0.5c-0.2,0.2-0.3,0.2-0.6,0.2s-0.4-0.1-0.6-0.2c-0.2-0.2-0.2-0.3-0.2-0.6c0-0.2,0.1-0.4,0.2-0.5
			c0.5-0.5,1.1-0.8,1.7-0.9c0.7-0.1,1.3-0.1,1.9,0.2c0.6,0.3,1.1,0.7,1.5,1.2c0.4,0.6,0.6,1.2,0.6,1.9v7.8c0,0.2-0.1,0.4-0.2,0.6
			s-0.3,0.2-0.5,0.2h-2.6c-0.5,0-0.9-0.1-1.3-0.3c-0.4-0.2-0.8-0.4-1.1-0.7c-0.3-0.3-0.6-0.7-0.7-1.1c-0.2-0.4-0.3-0.8-0.3-1.3
			s0.1-0.9,0.3-1.3c0.2-0.4,0.4-0.8,0.7-1.1c0.3-0.3,0.7-0.6,1.1-0.7c0.4-0.2,0.8-0.3,1.3-0.3H98.3z M94.6,128.1
			c0,0.5,0.2,0.9,0.5,1.3c0.4,0.4,0.8,0.5,1.3,0.5h1.8v-3.7h-1.8c-0.5,0-0.9,0.2-1.3,0.5C94.8,127.1,94.6,127.5,94.6,128.1z"/>
		<path class="st1" d="M112.5,124.7v-1.8c0-0.4-0.1-0.7-0.3-1c-0.2-0.3-0.5-0.5-0.8-0.7c-0.3-0.1-0.7-0.2-1-0.1
			c-0.3,0.1-0.6,0.2-0.9,0.5c-0.2,0.2-0.3,0.2-0.6,0.2s-0.4-0.1-0.6-0.2c-0.2-0.2-0.2-0.3-0.2-0.6c0-0.2,0.1-0.4,0.2-0.5
			c0.5-0.5,1.1-0.8,1.7-0.9c0.7-0.1,1.3-0.1,1.9,0.2c0.6,0.3,1.1,0.7,1.5,1.2c0.4,0.6,0.6,1.2,0.6,1.9v7.8c0,0.2-0.1,0.4-0.2,0.6
			s-0.3,0.2-0.5,0.2h-2.6c-0.5,0-0.9-0.1-1.3-0.3c-0.4-0.2-0.8-0.4-1.1-0.7c-0.3-0.3-0.6-0.7-0.7-1.1c-0.2-0.4-0.3-0.8-0.3-1.3
			s0.1-0.9,0.3-1.3c0.2-0.4,0.4-0.8,0.7-1.1c0.3-0.3,0.7-0.6,1.1-0.7c0.4-0.2,0.8-0.3,1.3-0.3H112.5z M108.8,128.1
			c0,0.5,0.2,0.9,0.5,1.3c0.4,0.4,0.8,0.5,1.3,0.5h1.8v-3.7h-1.8c-0.5,0-0.9,0.2-1.3,0.5C109,127.1,108.8,127.5,108.8,128.1z"/>
		<path class="st1" d="M118.8,131.4c-0.4-0.3-0.8-0.6-1-1.1c-0.3-0.4-0.4-0.9-0.4-1.4v-13.8c0-0.2,0.1-0.4,0.2-0.6
			c0.2-0.1,0.3-0.2,0.5-0.2c0.2,0,0.4,0.1,0.6,0.2c0.1,0.1,0.2,0.3,0.2,0.6V129c0,0.2,0.1,0.5,0.2,0.7c0.1,0.2,0.3,0.3,0.5,0.5
			c0.2,0.1,0.3,0.3,0.4,0.5c0.1,0.2,0,0.4-0.1,0.6c-0.1,0.2-0.3,0.3-0.5,0.4C119.2,131.6,119,131.5,118.8,131.4z"/>
		<path class="st1" d="M123.5,117.5c-0.3,0-0.5-0.1-0.7-0.3c-0.2-0.2-0.3-0.4-0.3-0.7s0.1-0.5,0.3-0.7c0.2-0.2,0.4-0.3,0.7-0.3
			c0.3,0,0.5,0.1,0.7,0.3c0.2,0.2,0.3,0.4,0.3,0.7s-0.1,0.5-0.3,0.7C124,117.4,123.8,117.5,123.5,117.5z M124.2,130.8
			c0,0.2-0.1,0.4-0.2,0.6c-0.1,0.1-0.3,0.2-0.6,0.2c-0.2,0-0.4-0.1-0.5-0.2c-0.2-0.1-0.2-0.3-0.2-0.6v-10.4c0-0.2,0.1-0.4,0.2-0.6
			c0.2-0.1,0.3-0.2,0.5-0.2c0.2,0,0.4,0.1,0.6,0.2c0.1,0.1,0.2,0.3,0.2,0.6V130.8z"/>
		<path class="st1" d="M129.5,121.2v9.5c0,0.2-0.1,0.4-0.2,0.6c-0.2,0.1-0.3,0.2-0.5,0.2c-0.2,0-0.4-0.1-0.6-0.2
			c-0.1-0.1-0.2-0.3-0.2-0.6v-10.3c0-0.2,0.1-0.4,0.2-0.6c0.1-0.1,0.3-0.2,0.6-0.2h7.8c0.5,0,0.9,0.1,1.3,0.3s0.8,0.4,1.1,0.7
			c0.3,0.3,0.5,0.7,0.7,1.1c0.2,0.4,0.3,0.8,0.3,1.3v7.7c0,0.2-0.1,0.4-0.2,0.6c-0.2,0.1-0.3,0.2-0.5,0.2c-0.2,0-0.4-0.1-0.6-0.2
			c-0.1-0.1-0.2-0.3-0.2-0.6V123c0-0.5-0.2-0.9-0.5-1.3s-0.8-0.5-1.3-0.5h-1.8v9.5c0,0.2-0.1,0.4-0.2,0.6c-0.2,0.1-0.3,0.2-0.5,0.2
			c-0.2,0-0.4-0.1-0.6-0.2c-0.1-0.1-0.2-0.3-0.2-0.6v-9.5H129.5z"/>
		<path class="st1" d="M145.1,131.3c-0.6-0.3-1.2-0.7-1.5-1.2c-0.4-0.6-0.6-1.2-0.6-1.9v-5.2c0-0.5,0.1-0.9,0.3-1.3
			c0.2-0.4,0.4-0.8,0.7-1.1c0.3-0.3,0.7-0.6,1.1-0.7c0.4-0.2,0.8-0.3,1.3-0.3c0.5,0,0.9,0.1,1.3,0.3c0.4,0.2,0.8,0.4,1.1,0.7
			c0.3,0.3,0.6,0.7,0.7,1.1c0.2,0.4,0.3,0.8,0.3,1.3v2.6c0,0.2-0.1,0.4-0.2,0.6c-0.1,0.1-0.3,0.2-0.6,0.2h-4.4v1.8
			c0,0.4,0.1,0.7,0.3,1c0.2,0.3,0.5,0.5,0.8,0.7c0.3,0.1,0.7,0.2,1.1,0.1c0.4-0.1,0.7-0.2,0.9-0.5c0.2-0.2,0.3-0.2,0.6-0.2
			c0.2,0,0.4,0.1,0.6,0.2c0.2,0.1,0.2,0.3,0.2,0.5c0,0.2-0.1,0.4-0.2,0.6c-0.5,0.5-1.1,0.8-1.7,0.9
			C146.4,131.6,145.7,131.5,145.1,131.3z M146.4,121.1c-0.5,0-0.9,0.2-1.3,0.5s-0.5,0.8-0.5,1.3v1.8h3.7v-1.8c0-0.5-0.2-0.9-0.5-1.3
			S146.9,121.1,146.4,121.1z"/>
		<path class="st1" d="M153.7,131.5c-0.2,0-0.4-0.1-0.6-0.2c-0.1-0.1-0.2-0.3-0.2-0.6v-10.3c0-0.2,0.1-0.4,0.2-0.6
			c0.1-0.1,0.3-0.2,0.6-0.2h2.6c0.5,0,0.9,0.1,1.3,0.3s0.8,0.4,1.1,0.7c0.3,0.3,0.5,0.7,0.7,1.1c0.2,0.4,0.3,0.8,0.3,1.3v7.7
			c0,0.2-0.1,0.4-0.2,0.6c-0.2,0.1-0.3,0.2-0.5,0.2c-0.2,0-0.4-0.1-0.6-0.2c-0.1-0.1-0.2-0.3-0.2-0.6V123c0-0.5-0.2-0.9-0.5-1.3
			c-0.4-0.4-0.8-0.5-1.3-0.5h-1.8v9.5c0,0.2-0.1,0.4-0.2,0.6C154.1,131.5,153.9,131.5,153.7,131.5z"/>
		<path class="st1" d="M162.2,121c-0.1-0.1-0.2-0.3-0.2-0.6c0-0.2,0.1-0.4,0.2-0.6c0.1-0.1,0.3-0.2,0.6-0.2h1.3v-4.5
			c0-0.2,0.1-0.4,0.2-0.6c0.1-0.1,0.3-0.2,0.6-0.2c0.2,0,0.4,0.1,0.6,0.2c0.1,0.1,0.2,0.3,0.2,0.6v4.5h1.8c0.2,0,0.4,0.1,0.6,0.2
			c0.1,0.1,0.2,0.3,0.2,0.6c0,0.2-0.1,0.4-0.2,0.6c-0.1,0.1-0.3,0.2-0.6,0.2h-1.8v6.9c0,0.5,0.2,0.9,0.5,1.3
			c0.4,0.4,0.8,0.5,1.3,0.5c0.2,0,0.4,0.1,0.6,0.2c0.1,0.1,0.2,0.3,0.2,0.6c0,0.2-0.1,0.4-0.2,0.6c-0.1,0.1-0.3,0.2-0.6,0.2
			c-0.5,0-0.9-0.1-1.3-0.3c-0.4-0.2-0.8-0.4-1.1-0.7c-0.3-0.3-0.6-0.7-0.7-1.1c-0.2-0.4-0.3-0.8-0.3-1.3v-6.9h-1.3
			C162.6,121.2,162.4,121.1,162.2,121z"/>
		<path class="st1" d="M175,124.7v-1.8c0-0.4-0.1-0.7-0.3-1s-0.5-0.5-0.8-0.7c-0.3-0.1-0.7-0.2-1-0.1c-0.3,0.1-0.6,0.2-0.9,0.5
			c-0.2,0.2-0.3,0.2-0.6,0.2c-0.2,0-0.4-0.1-0.6-0.2c-0.2-0.2-0.2-0.3-0.2-0.6c0-0.2,0.1-0.4,0.2-0.5c0.5-0.5,1.1-0.8,1.7-0.9
			c0.7-0.1,1.3-0.1,1.9,0.2s1.1,0.7,1.5,1.2c0.4,0.6,0.6,1.2,0.6,1.9v7.8c0,0.2-0.1,0.4-0.2,0.6s-0.3,0.2-0.5,0.2h-2.6
			c-0.5,0-0.9-0.1-1.3-0.3s-0.8-0.4-1.1-0.7c-0.3-0.3-0.6-0.7-0.7-1.1c-0.2-0.4-0.3-0.8-0.3-1.3s0.1-0.9,0.3-1.3
			c0.2-0.4,0.4-0.8,0.7-1.1c0.3-0.3,0.7-0.6,1.1-0.7c0.4-0.2,0.8-0.3,1.3-0.3H175z M171.4,128.1c0,0.5,0.2,0.9,0.5,1.3
			s0.8,0.5,1.3,0.5h1.8v-3.7h-1.8c-0.5,0-0.9,0.2-1.3,0.5S171.4,127.5,171.4,128.1z"/>
		<path class="st1" d="M181.8,131.3c-0.6-0.3-1.2-0.7-1.5-1.2c-0.4-0.6-0.6-1.2-0.6-1.9v-5.2c0-0.7,0.2-1.3,0.6-1.9s0.9-1,1.5-1.2
			c0.6-0.3,1.3-0.3,2-0.2c0.7,0.1,1.2,0.4,1.7,0.9c0.1,0.2,0.2,0.3,0.2,0.6c0,0.2-0.1,0.4-0.2,0.6c-0.2,0.1-0.3,0.2-0.6,0.2
			c-0.2,0-0.4-0.1-0.6-0.2c-0.3-0.3-0.6-0.5-0.9-0.5c-0.4-0.1-0.7,0-1.1,0.1c-0.3,0.1-0.6,0.4-0.8,0.7c-0.2,0.3-0.3,0.7-0.3,1v5.2
			c0,0.4,0.1,0.7,0.3,1c0.2,0.3,0.5,0.5,0.8,0.7c0.3,0.1,0.7,0.2,1.1,0.1c0.4-0.1,0.7-0.2,0.9-0.5c0.2-0.2,0.3-0.2,0.6-0.2
			c0.2,0,0.4,0.1,0.6,0.2c0.1,0.1,0.2,0.3,0.2,0.5c0,0.2-0.1,0.4-0.2,0.6c-0.5,0.5-1.1,0.8-1.7,0.9
			C183.1,131.6,182.5,131.5,181.8,131.3z"/>
		<path class="st1" d="M189.4,117.5c-0.3,0-0.5-0.1-0.7-0.3s-0.3-0.4-0.3-0.7s0.1-0.5,0.3-0.7s0.4-0.3,0.7-0.3s0.5,0.1,0.7,0.3
			s0.3,0.4,0.3,0.7s-0.1,0.5-0.3,0.7S189.7,117.5,189.4,117.5z M190.2,130.8c0,0.2-0.1,0.4-0.2,0.6c-0.1,0.1-0.3,0.2-0.6,0.2
			c-0.2,0-0.4-0.1-0.5-0.2c-0.2-0.1-0.2-0.3-0.2-0.6v-10.4c0-0.2,0.1-0.4,0.2-0.6c0.2-0.1,0.3-0.2,0.5-0.2c0.2,0,0.4,0.1,0.6,0.2
			c0.1,0.1,0.2,0.3,0.2,0.6V130.8z"/>
		<path class="st1" d="M196.9,131.5c-0.5,0-0.9-0.1-1.3-0.3c-0.4-0.2-0.8-0.4-1.1-0.7c-0.3-0.3-0.6-0.7-0.7-1.1
			c-0.2-0.4-0.3-0.8-0.3-1.3v-5.2c0-0.5,0.1-0.9,0.3-1.3c0.2-0.4,0.4-0.8,0.7-1.1c0.3-0.3,0.7-0.6,1.1-0.7c0.4-0.2,0.8-0.3,1.3-0.3
			c0.5,0,0.9,0.1,1.3,0.3c0.4,0.2,0.8,0.4,1.1,0.7c0.3,0.3,0.6,0.7,0.7,1.1c0.2,0.4,0.3,0.8,0.3,1.3v5.2c0,0.5-0.1,0.9-0.3,1.3
			c-0.2,0.4-0.4,0.8-0.7,1.1c-0.3,0.3-0.7,0.6-1.1,0.7C197.8,131.5,197.4,131.5,196.9,131.5z M195,118c-0.1-0.2-0.2-0.3-0.2-0.6
			s0.1-0.4,0.2-0.5l2.6-2.3c0.2-0.1,0.3-0.2,0.6-0.2c0.2,0,0.4,0.1,0.5,0.2c0.1,0.2,0.2,0.3,0.2,0.6c0,0.2-0.1,0.4-0.2,0.5l-2.6,2.3
			c-0.2,0.1-0.3,0.2-0.6,0.2C195.3,118.2,195.2,118.1,195,118z M196.9,121.1c-0.5,0-0.9,0.2-1.3,0.5s-0.5,0.8-0.5,1.3v5.2
			c0,0.5,0.2,0.9,0.5,1.3s0.8,0.5,1.3,0.5s0.9-0.2,1.3-0.5s0.5-0.8,0.5-1.3v-5.2c0-0.5-0.2-0.9-0.5-1.3S197.4,121.1,196.9,121.1z"/>
		<path class="st1" d="M204.4,131.5c-0.2,0-0.4-0.1-0.6-0.2c-0.1-0.1-0.2-0.3-0.2-0.6v-10.3c0-0.2,0.1-0.4,0.2-0.6
			c0.1-0.1,0.3-0.2,0.6-0.2h2.6c0.5,0,0.9,0.1,1.3,0.3c0.4,0.2,0.8,0.4,1.1,0.7c0.3,0.3,0.5,0.7,0.7,1.1c0.2,0.4,0.3,0.8,0.3,1.3
			v7.7c0,0.2-0.1,0.4-0.2,0.6c-0.2,0.1-0.3,0.2-0.5,0.2c-0.2,0-0.4-0.1-0.6-0.2c-0.1-0.1-0.2-0.3-0.2-0.6V123c0-0.5-0.2-0.9-0.5-1.3
			s-0.8-0.5-1.3-0.5h-1.8v9.5c0,0.2-0.1,0.4-0.2,0.6C204.8,131.5,204.6,131.5,204.4,131.5z"/>
	</g>
	<g>
		<path class="st1" d="M244,157.6H3.5V3L244,13.2V157.6z M8,153.1h231.5V17.5L8,7.7V153.1z"/>
	</g>
</g>
</svg>
