<?xml version="1.0" encoding="utf-8"?>
<!-- Generator: Adobe Illustrator 22.0.1, SVG Export Plug-In . SVG Version: 6.00 Build 0)  -->
<svg version="1.1" id="Capa_1" xmlns="http://www.w3.org/2000/svg" xmlns:xlink="http://www.w3.org/1999/xlink" x="0px" y="0px"
	 viewBox="0 0 247.5 160.6" style="enable-background:new 0 0 247.5 160.6;" xml:space="preserve">
<style type="text/css">
	.st0{enable-background:new    ;}
	.st1{fill:#FFFFFF;}
</style>
<g>
	<g class="st0">
		<path class="st1" d="M36.1,65.5c-0.9,0-1.7-0.2-2.5-0.5c-0.8-0.3-1.4-0.8-2-1.4c-0.6-0.6-1-1.2-1.4-2c-0.3-0.8-0.5-1.6-0.5-2.5
			V44.9c0-0.9,0.2-1.7,0.5-2.5c0.3-0.8,0.8-1.5,1.4-2c0.6-0.6,1.2-1,2-1.4c0.8-0.3,1.6-0.5,2.5-0.5c0.9,0,1.7,0.2,2.5,0.5
			c0.8,0.3,1.5,0.8,2,1.4c0.6,0.6,1,1.2,1.4,2c0.3,0.8,0.5,1.6,0.5,2.5v14.2c0,0.9-0.2,1.7-0.5,2.5c-0.3,0.8-0.8,1.4-1.4,2
			c-0.6,0.6-1.2,1-2,1.4C37.8,65.3,37,65.5,36.1,65.5z M36.1,41.2c-1,0-1.9,0.4-2.6,1.1s-1.1,1.6-1.1,2.6v14.2c0,1,0.4,1.9,1.1,2.6
			c0.7,0.7,1.6,1.1,2.6,1.1c1,0,1.9-0.4,2.6-1.1c0.7-0.7,1.1-1.6,1.1-2.6V44.9c0-0.5-0.1-1-0.3-1.4c-0.2-0.4-0.5-0.8-0.8-1.2
			c-0.3-0.3-0.7-0.6-1.2-0.8S36.6,41.2,36.1,41.2z"/>
		<path class="st1" d="M60.4,47.4c0,1.3-0.4,2.5-1.1,3.6c-0.7,1.1-1.7,1.8-2.8,2.3l3.9,10.4c0.1,0.3,0.1,0.7,0,1
			c-0.2,0.3-0.4,0.6-0.8,0.7c-0.3,0.1-0.7,0.1-1,0c-0.3-0.2-0.6-0.4-0.7-0.8l-4-10.8h-3.4v10.4c0,0.4-0.1,0.7-0.4,1s-0.6,0.4-1,0.4
			c-0.4,0-0.7-0.1-0.9-0.4c-0.3-0.3-0.4-0.6-0.4-1V40c0-0.4,0.1-0.7,0.4-1c0.3-0.3,0.6-0.4,0.9-0.4h5c0.9,0,1.7,0.2,2.5,0.5
			c0.8,0.3,1.5,0.8,2,1.4c0.6,0.6,1,1.2,1.4,2s0.5,1.6,0.5,2.5V47.4z M54,51.1c1,0,1.9-0.4,2.6-1.1c0.7-0.7,1.1-1.6,1.1-2.6v-2.3
			c0-1-0.4-1.9-1.1-2.6c-0.7-0.7-1.6-1.1-2.6-1.1h-3.7v9.7H54z"/>
		<path class="st1" d="M65.9,41c0.9-1.1,2-1.9,3.4-2.3c0.7-0.2,1.4-0.3,2.1-0.2c0.7,0.1,1.4,0.2,2,0.5c0.6,0.3,1.2,0.6,1.7,1.1
			c0.5,0.5,1,1,1.3,1.6c0.2,0.3,0.2,0.6,0.1,1c-0.1,0.4-0.3,0.6-0.6,0.8c-0.3,0.2-0.6,0.2-1,0.1c-0.4-0.1-0.6-0.3-0.8-0.6
			c-0.4-0.7-1-1.2-1.7-1.6c-0.8-0.3-1.6-0.4-2.4-0.1c-0.8,0.2-1.5,0.7-2,1.3c-0.5,0.7-0.8,1.4-0.8,2.2v14.2c0,1,0.4,1.9,1.1,2.6
			c0.7,0.7,1.6,1.1,2.6,1.1c1,0,1.9-0.4,2.6-1.1c0.7-0.7,1.1-1.6,1.1-2.6v-5.4h-2.8c-0.4,0-0.7-0.1-0.9-0.4c-0.3-0.3-0.4-0.6-0.4-1
			s0.1-0.7,0.4-1c0.3-0.3,0.6-0.4,0.9-0.4h4.2c0.4,0,0.7,0.1,1,0.4c0.3,0.3,0.4,0.6,0.4,1v6.7c0,0.9-0.2,1.7-0.5,2.5
			c-0.3,0.8-0.8,1.4-1.4,2c-0.6,0.6-1.2,1-2,1.4c-0.8,0.3-1.6,0.5-2.5,0.5c-0.9,0-1.7-0.2-2.5-0.5c-0.8-0.3-1.4-0.8-2-1.4
			c-0.6-0.6-1-1.2-1.4-2c-0.3-0.8-0.5-1.6-0.5-2.5V44.9C64.5,43.5,65,42.2,65.9,41z"/>
		<path class="st1" d="M96.5,63.8c0.1,0.4,0.1,0.7-0.1,1c-0.2,0.3-0.5,0.5-0.9,0.6c-0.4,0.1-0.7,0.1-1-0.1c-0.3-0.2-0.5-0.5-0.6-0.8
			c-0.1-0.4-0.2-0.9-0.4-1.4c-0.1-0.4-0.3-1-0.4-1.5c-0.2-0.6-0.3-1.2-0.5-2h-8.1c-0.2,0.7-0.4,1.4-0.5,2c-0.1,0.6-0.3,1.1-0.4,1.5
			c-0.1,0.5-0.3,1-0.4,1.4c-0.1,0.4-0.3,0.6-0.6,0.8c-0.3,0.2-0.7,0.2-1,0.1c-0.4-0.1-0.6-0.3-0.8-0.6c-0.2-0.3-0.2-0.6-0.1-1
			l6.7-24.3c0.1-0.3,0.2-0.5,0.5-0.7c0.2-0.2,0.5-0.3,0.8-0.3c0.3,0,0.6,0.1,0.8,0.3c0.2,0.2,0.4,0.4,0.5,0.7L96.5,63.8z M91.8,57
			c-0.3-1-0.6-2.1-0.9-3.2c-0.3-1.1-0.6-2.2-0.9-3.2c-0.3-1.1-0.6-2.1-0.8-3c-0.3-1-0.5-1.8-0.7-2.6c-0.2,0.8-0.5,1.6-0.7,2.6
			c-0.3,1-0.5,2-0.8,3c-0.3,1.1-0.6,2.1-0.9,3.2c-0.3,1.1-0.6,2.2-0.9,3.2H91.8z"/>
		<path class="st1" d="M113.7,65.5c-0.3,0.1-0.6,0.1-0.9-0.1c-0.3-0.1-0.5-0.3-0.6-0.6c-1.2-2.4-2.3-4.8-3.4-7.1c-0.5-1-1-2-1.5-3.1
			c-0.5-1.1-1-2.1-1.5-3.2c-0.5-1-1-2.1-1.4-3c-0.5-1-0.9-1.9-1.3-2.7v18.4c0,0.4-0.1,0.7-0.4,1s-0.6,0.4-1,0.4
			c-0.4,0-0.7-0.1-1-0.4s-0.4-0.6-0.4-1V39.9c0-0.3,0.1-0.6,0.3-0.8c0.2-0.3,0.4-0.4,0.8-0.5c0.3-0.1,0.6,0,0.9,0.1
			c0.3,0.1,0.5,0.3,0.6,0.6c1.1,2.4,2.3,4.8,3.4,7.1c0.5,1,1,2,1.5,3.1c0.5,1.1,1,2.1,1.5,3.2c0.5,1,1,2.1,1.5,3
			c0.5,1,0.9,1.9,1.3,2.7V39.9c0-0.4,0.1-0.7,0.4-1c0.3-0.3,0.6-0.4,1-0.4c0.4,0,0.7,0.1,1,0.4c0.3,0.3,0.4,0.6,0.4,1v24.3
			c0,0.3-0.1,0.6-0.3,0.8C114.3,65.2,114,65.4,113.7,65.5z"/>
		<path class="st1" d="M121.8,65.5c-0.4,0-0.7-0.1-0.9-0.4c-0.3-0.3-0.4-0.6-0.4-1V39.9c0-0.4,0.1-0.7,0.4-1
			c0.3-0.3,0.6-0.4,0.9-0.4c0.4,0,0.7,0.1,1,0.4c0.3,0.3,0.4,0.6,0.4,1v24.3c0,0.4-0.1,0.7-0.4,1S122.2,65.5,121.8,65.5z"/>
		<path class="st1" d="M127.7,64c0-0.2,0-0.3,0.1-0.5c1.5-3.5,2.8-6.8,4.1-9.8c0.5-1.3,1.1-2.6,1.6-3.9s1-2.5,1.5-3.6
			c0.5-1.1,0.9-2.1,1.2-3c0.4-0.9,0.6-1.5,0.8-1.9h-8c-0.4,0-0.7-0.1-1-0.4c-0.3-0.3-0.4-0.6-0.4-1s0.1-0.7,0.4-1s0.6-0.4,1-0.4h10
			c0.5,0,0.9,0.2,1.1,0.6c0.1,0.3,0.2,0.5,0.2,0.8c0,0.1,0,0.3-0.1,0.5c-1.5,3.6-2.9,6.9-4.1,9.9c-0.6,1.3-1.1,2.6-1.6,3.9
			c-0.5,1.3-1,2.5-1.5,3.6c-0.5,1.1-0.9,2.1-1.2,2.9c-0.3,0.8-0.6,1.5-0.8,1.8h8c0.4,0,0.7,0.1,1,0.4s0.4,0.6,0.4,1s-0.1,0.7-0.4,1
			s-0.6,0.4-1,0.4h-10c-0.5,0-0.9-0.2-1.1-0.6C127.7,64.5,127.7,64.2,127.7,64z"/>
		<path class="st1" d="M159.1,63.8c0.1,0.4,0.1,0.7-0.1,1c-0.2,0.3-0.5,0.5-0.9,0.6c-0.4,0.1-0.7,0.1-1-0.1
			c-0.3-0.2-0.5-0.5-0.6-0.8c-0.1-0.4-0.2-0.9-0.4-1.4c-0.1-0.4-0.3-1-0.4-1.5s-0.3-1.2-0.5-2H147c-0.2,0.7-0.4,1.4-0.5,2
			c-0.1,0.6-0.3,1.1-0.4,1.5c-0.1,0.5-0.3,1-0.4,1.4c-0.1,0.4-0.3,0.6-0.6,0.8c-0.3,0.2-0.7,0.2-1,0.1c-0.4-0.1-0.6-0.3-0.8-0.6
			s-0.2-0.6-0.1-1l6.7-24.3c0.1-0.3,0.2-0.5,0.5-0.7c0.2-0.2,0.5-0.3,0.8-0.3c0.3,0,0.6,0.1,0.8,0.3c0.2,0.2,0.4,0.4,0.5,0.7
			L159.1,63.8z M154.4,57c-0.3-1-0.6-2.1-0.9-3.2c-0.3-1.1-0.6-2.2-0.9-3.2c-0.3-1.1-0.6-2.1-0.8-3c-0.3-1-0.5-1.8-0.7-2.6
			c-0.2,0.8-0.5,1.6-0.7,2.6c-0.3,1-0.5,2-0.8,3c-0.3,1.1-0.6,2.1-0.9,3.2s-0.6,2.2-0.9,3.2H154.4z"/>
		<path class="st1" d="M167.2,65.3c-1.4-0.4-2.6-1.2-3.4-2.3c-0.9-1.1-1.3-2.4-1.3-3.9V44.9c0-1.5,0.4-2.7,1.3-3.9s2-1.9,3.4-2.3
			c0.7-0.2,1.4-0.3,2.1-0.2c0.7,0.1,1.4,0.2,2,0.5c0.6,0.3,1.2,0.6,1.7,1.1c0.5,0.5,1,1,1.3,1.6c0.2,0.3,0.2,0.6,0.1,1
			c-0.1,0.4-0.3,0.6-0.6,0.8c-0.3,0.2-0.6,0.2-1,0.1c-0.4-0.1-0.6-0.3-0.8-0.6c-0.4-0.7-1-1.2-1.8-1.6c-0.8-0.3-1.6-0.4-2.4-0.1
			c-0.8,0.2-1.5,0.7-2,1.3c-0.5,0.7-0.8,1.4-0.8,2.2v14.2c0,0.8,0.3,1.6,0.8,2.2c0.5,0.7,1.2,1.1,2,1.3c0.8,0.2,1.6,0.2,2.4-0.1
			c0.8-0.3,1.4-0.8,1.8-1.6c0.2-0.3,0.5-0.5,0.8-0.6c0.4-0.1,0.7-0.1,1,0.1c0.3,0.2,0.5,0.5,0.6,0.8c0.1,0.4,0.1,0.7-0.1,1
			c-0.4,0.6-0.8,1.2-1.3,1.6c-0.5,0.4-1.1,0.8-1.7,1.1c-0.6,0.3-1.3,0.4-2,0.5C168.6,65.5,167.9,65.5,167.2,65.3z"/>
		<path class="st1" d="M180.4,65.5c-0.4,0-0.7-0.1-0.9-0.4c-0.3-0.3-0.4-0.6-0.4-1V39.9c0-0.4,0.1-0.7,0.4-1
			c0.3-0.3,0.6-0.4,0.9-0.4c0.4,0,0.7,0.1,1,0.4c0.3,0.3,0.4,0.6,0.4,1v24.3c0,0.4-0.1,0.7-0.4,1S180.8,65.5,180.4,65.5z"/>
		<path class="st1" d="M199.7,59.1c0,0.9-0.2,1.7-0.5,2.5c-0.3,0.8-0.8,1.4-1.4,2c-0.6,0.6-1.3,1-2,1.4c-0.8,0.3-1.6,0.5-2.5,0.5
			s-1.7-0.2-2.4-0.5s-1.4-0.8-2-1.4c-0.6-0.6-1-1.2-1.4-2c-0.3-0.8-0.5-1.6-0.5-2.5V44.9c0-0.9,0.2-1.7,0.5-2.5s0.8-1.5,1.4-2
			c0.6-0.6,1.3-1,2-1.4s1.6-0.5,2.4-0.5s1.7,0.2,2.5,0.5c0.8,0.3,1.5,0.8,2,1.4c0.6,0.6,1,1.2,1.4,2c0.3,0.8,0.5,1.6,0.5,2.5V59.1z
			 M189.6,59.1c0,1,0.4,1.9,1.1,2.6c0.7,0.7,1.6,1.1,2.6,1.1c1,0,1.9-0.4,2.6-1.1c0.7-0.7,1.1-1.6,1.1-2.6V44.9c0-1-0.4-1.9-1.1-2.6
			c-0.7-0.7-1.6-1.1-2.6-1.1c-0.5,0-1,0.1-1.4,0.3s-0.8,0.5-1.2,0.8s-0.6,0.7-0.8,1.2c-0.2,0.4-0.3,0.9-0.3,1.4V59.1z M190.3,35.3
			c-0.3-0.3-0.4-0.6-0.4-1c0-0.4,0.2-0.7,0.4-0.9l4.2-3.8c0.3-0.3,0.6-0.4,1-0.3c0.4,0,0.7,0.2,0.9,0.5c0.3,0.3,0.4,0.6,0.4,1
			c0,0.4-0.2,0.7-0.4,0.9l-4.2,3.8c-0.3,0.3-0.6,0.4-1,0.4C190.8,35.8,190.5,35.6,190.3,35.3z"/>
		<path class="st1" d="M218.2,65.5c-0.3,0.1-0.6,0.1-0.9-0.1c-0.3-0.1-0.5-0.3-0.6-0.6c-1.2-2.4-2.3-4.8-3.4-7.1c-0.5-1-1-2-1.5-3.1
			c-0.5-1.1-1-2.1-1.5-3.2c-0.5-1-1-2.1-1.4-3c-0.5-1-0.9-1.9-1.3-2.7v18.4c0,0.4-0.1,0.7-0.4,1s-0.6,0.4-1,0.4
			c-0.4,0-0.7-0.1-1-0.4s-0.4-0.6-0.4-1V39.9c0-0.3,0.1-0.6,0.3-0.8s0.4-0.4,0.8-0.5c0.3-0.1,0.6,0,0.9,0.1c0.3,0.1,0.5,0.3,0.6,0.6
			c1.1,2.4,2.3,4.8,3.4,7.1c0.5,1,1,2,1.5,3.1s1,2.1,1.5,3.2c0.5,1,1,2.1,1.5,3c0.5,1,0.9,1.9,1.3,2.7V39.9c0-0.4,0.1-0.7,0.4-1
			c0.3-0.3,0.6-0.4,1-0.4c0.4,0,0.7,0.1,1,0.4c0.3,0.3,0.4,0.6,0.4,1v24.3c0,0.3-0.1,0.6-0.3,0.8S218.5,65.4,218.2,65.5z"/>
	</g>
	<g class="st0">
		<path class="st1" d="M36.6,75.6c0.9,0,1.7,0.2,2.5,0.5c0.8,0.3,1.5,0.8,2,1.4c0.6,0.6,1,1.2,1.4,2S43,81.1,43,82v13.9
			c0,0.9-0.2,1.7-0.5,2.5s-0.8,1.4-1.4,2c-0.6,0.6-1.2,1-2,1.4c-0.8,0.3-1.6,0.5-2.5,0.5h-5c-0.4,0-0.7-0.1-1-0.4s-0.4-0.6-0.4-1
			V76.9c0-0.4,0.1-0.7,0.4-1s0.6-0.4,1-0.4H36.6z M40.3,82c0-1-0.4-1.9-1.1-2.6c-0.7-0.7-1.6-1.1-2.6-1.1h-3.7v21.3h3.7
			c1,0,1.9-0.4,2.6-1.1c0.7-0.7,1.1-1.6,1.1-2.6V82z"/>
		<path class="st1" d="M48.1,76.9c0-0.4,0.1-0.7,0.4-1s0.6-0.4,1-0.4h8.4c0.4,0,0.7,0.1,1,0.4c0.3,0.3,0.4,0.6,0.4,1s-0.1,0.7-0.4,1
			c-0.3,0.3-0.6,0.4-1,0.4h-7v8.9H57c0.4,0,0.7,0.1,1,0.4s0.4,0.6,0.4,1s-0.1,0.7-0.4,1s-0.6,0.4-1,0.4h-6.2v9.7h7
			c0.4,0,0.7,0.1,1,0.4c0.3,0.3,0.4,0.6,0.4,1s-0.1,0.7-0.4,1c-0.3,0.3-0.6,0.4-1,0.4h-8.4c-0.4,0-0.7-0.1-1-0.4s-0.4-0.6-0.4-1
			V76.9z"/>
		<path class="st1" d="M71.6,76.9c0-0.4,0.1-0.7,0.4-1s0.6-0.4,1-0.4h8.4c0.4,0,0.7,0.1,1,0.4c0.3,0.3,0.4,0.6,0.4,1s-0.1,0.7-0.4,1
			c-0.3,0.3-0.6,0.4-1,0.4h-7v8.9h6.2c0.4,0,0.7,0.1,1,0.4s0.4,0.6,0.4,1s-0.1,0.7-0.4,1s-0.6,0.4-1,0.4h-6.2v9.7h7
			c0.4,0,0.7,0.1,1,0.4c0.3,0.3,0.4,0.6,0.4,1s-0.1,0.7-0.4,1c-0.3,0.3-0.6,0.4-1,0.4h-8.4c-0.4,0-0.7-0.1-1-0.4s-0.4-0.6-0.4-1
			V76.9z"/>
		<path class="st1" d="M94.2,98.9c0.9-0.7,1.5-1.6,1.5-2.8c0.1-0.6,0-1.1-0.2-1.6c-0.2-0.5-0.5-1-0.9-1.4l-6.7-6.9
			c-0.6-0.6-1.1-1.4-1.4-2.3c-0.3-0.9-0.4-1.7-0.3-2.6c0.1-0.9,0.3-1.8,0.8-2.6c0.4-0.8,1-1.5,1.8-2c0.7-0.6,1.5-0.9,2.4-1.2
			c0.9-0.2,1.8-0.2,2.7,0c0.9,0.2,1.7,0.6,2.4,1.1c0.7,0.5,1.3,1.2,1.8,2c0.2,0.3,0.2,0.6,0.1,1c-0.1,0.4-0.3,0.6-0.6,0.8
			c-0.3,0.2-0.6,0.2-1,0.1c-0.4-0.1-0.6-0.3-0.8-0.6c-0.6-0.9-1.4-1.5-2.5-1.8c-1.1-0.2-2.1,0-3,0.7c-0.9,0.6-1.3,1.5-1.4,2.6
			c-0.1,1.1,0.3,2,1,2.8l6.7,6.9c0.6,0.7,1.1,1.4,1.4,2.3c0.3,0.9,0.5,1.8,0.4,2.7c-0.1,0.9-0.3,1.8-0.8,2.7c-0.4,0.8-1,1.5-1.8,2.1
			c-0.8,0.6-1.6,0.9-2.5,1.2s-1.8,0.2-2.8,0c-0.9-0.2-1.8-0.6-2.5-1.1c-0.8-0.5-1.4-1.2-1.9-2c-0.2-0.3-0.2-0.7-0.1-1
			c0.1-0.3,0.3-0.6,0.6-0.8c0.3-0.2,0.6-0.2,1-0.1c0.4,0.1,0.6,0.3,0.8,0.6c0.3,0.5,0.6,0.9,1.1,1.2c0.4,0.3,0.9,0.5,1.5,0.6
			C92.2,99.9,93.3,99.6,94.2,98.9z"/>
		<path class="st1" d="M103,76.9c0-0.4,0.1-0.7,0.4-1s0.6-0.4,1-0.4h5c0.9,0,1.7,0.2,2.5,0.5c0.8,0.3,1.5,0.8,2,1.4
			c0.6,0.6,1,1.2,1.4,2s0.5,1.6,0.5,2.5v2.3c0,0.9-0.2,1.7-0.5,2.5s-0.8,1.4-1.4,2c-0.6,0.6-1.2,1-2,1.4c-0.8,0.3-1.6,0.5-2.5,0.5
			h-3.7v10.4c0,0.4-0.1,0.7-0.4,1s-0.6,0.4-1,0.4c-0.4,0-0.7-0.1-1-0.4s-0.4-0.6-0.4-1V76.9z M113,82c0-0.5-0.1-1-0.3-1.4
			c-0.2-0.4-0.5-0.8-0.8-1.2c-0.3-0.3-0.7-0.6-1.2-0.8c-0.4-0.2-0.9-0.3-1.4-0.3h-3.7V88h3.7c1,0,1.9-0.4,2.6-1.1
			c0.7-0.7,1.1-1.6,1.1-2.6V82z"/>
		<path class="st1" d="M132.2,100.7c0.1,0.4,0.1,0.7-0.1,1s-0.5,0.5-0.9,0.6c-0.4,0.1-0.7,0.1-1-0.1c-0.3-0.2-0.5-0.5-0.6-0.8
			c-0.1-0.4-0.2-0.9-0.4-1.4c-0.1-0.4-0.3-1-0.4-1.5c-0.2-0.6-0.3-1.2-0.5-2h-8.1c-0.2,0.7-0.4,1.4-0.5,2c-0.1,0.6-0.3,1.1-0.4,1.5
			c-0.1,0.5-0.3,1-0.4,1.4c-0.1,0.4-0.3,0.6-0.6,0.8c-0.3,0.2-0.7,0.2-1,0.1c-0.4-0.1-0.6-0.3-0.8-0.6c-0.2-0.3-0.2-0.6-0.1-1
			l6.7-24.3c0.1-0.3,0.2-0.5,0.5-0.7c0.2-0.2,0.5-0.3,0.8-0.3c0.3,0,0.6,0.1,0.8,0.3c0.2,0.2,0.4,0.4,0.5,0.7L132.2,100.7z
			 M127.5,93.9c-0.3-1-0.6-2.1-0.9-3.2s-0.6-2.2-0.9-3.2c-0.3-1.1-0.6-2.1-0.8-3c-0.3-1-0.5-1.8-0.7-2.6c-0.2,0.8-0.5,1.6-0.7,2.6
			c-0.3,1-0.5,2-0.8,3c-0.3,1.1-0.6,2.1-0.9,3.2c-0.3,1.1-0.6,2.2-0.9,3.2H127.5z"/>
		<path class="st1" d="M140.3,102.2c-1.4-0.4-2.6-1.2-3.4-2.3c-0.9-1.1-1.3-2.4-1.3-3.9V81.8c0-1.4,0.4-2.7,1.3-3.9
			c0.9-1.1,2-1.9,3.4-2.3c0.7-0.2,1.4-0.3,2.1-0.2s1.4,0.2,2,0.5s1.2,0.6,1.7,1.1c0.5,0.5,1,1,1.3,1.6c0.2,0.3,0.2,0.6,0.1,1
			s-0.3,0.6-0.6,0.8c-0.3,0.2-0.6,0.2-1,0.1c-0.4-0.1-0.6-0.3-0.8-0.6c-0.4-0.7-1-1.2-1.8-1.6c-0.8-0.3-1.6-0.4-2.4-0.1
			c-0.8,0.2-1.5,0.7-2,1.3c-0.5,0.7-0.8,1.4-0.8,2.2V96c0,0.8,0.3,1.6,0.8,2.2c0.5,0.7,1.2,1.1,2,1.3c0.8,0.2,1.6,0.2,2.4-0.1
			c0.8-0.3,1.4-0.8,1.8-1.6c0.2-0.3,0.5-0.5,0.8-0.6c0.4-0.1,0.7-0.1,1,0.1c0.3,0.2,0.5,0.5,0.6,0.8s0.1,0.7-0.1,1
			c-0.4,0.6-0.8,1.2-1.3,1.6c-0.5,0.4-1.1,0.8-1.7,1.1c-0.6,0.3-1.3,0.4-2,0.5S141,102.4,140.3,102.2z"/>
		<path class="st1" d="M153.6,102.4c-0.4,0-0.7-0.1-0.9-0.4c-0.3-0.3-0.4-0.6-0.4-1V76.8c0-0.4,0.1-0.7,0.4-1
			c0.3-0.3,0.6-0.4,0.9-0.4c0.4,0,0.7,0.1,1,0.4c0.3,0.3,0.4,0.6,0.4,1v24.3c0,0.4-0.1,0.7-0.4,1S154,102.4,153.6,102.4z"/>
		<path class="st1" d="M166.5,102.4c-0.9,0-1.7-0.2-2.5-0.5c-0.8-0.3-1.4-0.8-2-1.4c-0.6-0.6-1-1.2-1.4-2c-0.3-0.8-0.5-1.6-0.5-2.5
			V81.8c0-0.9,0.2-1.7,0.5-2.5c0.3-0.8,0.8-1.5,1.4-2c0.6-0.6,1.2-1,2-1.4c0.8-0.3,1.6-0.5,2.5-0.5c0.9,0,1.7,0.2,2.5,0.5
			s1.5,0.8,2,1.4c0.6,0.6,1,1.2,1.4,2s0.5,1.6,0.5,2.5V96c0,0.9-0.2,1.7-0.5,2.5c-0.3,0.8-0.8,1.4-1.4,2c-0.6,0.6-1.2,1-2,1.4
			S167.3,102.4,166.5,102.4z M166.5,78.1c-1,0-1.9,0.4-2.6,1.1c-0.7,0.7-1.1,1.6-1.1,2.6V96c0,1,0.4,1.9,1.1,2.6
			c0.7,0.7,1.6,1.1,2.6,1.1c1,0,1.9-0.4,2.6-1.1c0.7-0.7,1.1-1.6,1.1-2.6V81.8c0-0.5-0.1-1-0.3-1.4s-0.5-0.8-0.8-1.2
			s-0.7-0.6-1.2-0.8S167,78.1,166.5,78.1z"/>
		<path class="st1" d="M185.2,98.9c0.9-0.7,1.5-1.6,1.5-2.8c0.1-0.6,0-1.1-0.2-1.6c-0.2-0.5-0.5-1-0.9-1.4l-6.7-6.9
			c-0.6-0.6-1.1-1.4-1.4-2.3c-0.3-0.9-0.4-1.7-0.3-2.6c0.1-0.9,0.3-1.8,0.8-2.6c0.4-0.8,1-1.5,1.8-2c0.7-0.6,1.5-0.9,2.4-1.2
			c0.9-0.2,1.8-0.2,2.7,0c0.9,0.2,1.7,0.6,2.4,1.1c0.7,0.5,1.3,1.2,1.8,2c0.2,0.3,0.2,0.6,0.1,1s-0.3,0.6-0.6,0.8
			c-0.3,0.2-0.6,0.2-1,0.1c-0.4-0.1-0.6-0.3-0.8-0.6c-0.6-0.9-1.4-1.5-2.5-1.8c-1.1-0.2-2.1,0-3,0.7c-0.9,0.6-1.3,1.5-1.4,2.6
			c-0.1,1.1,0.3,2,1,2.8l6.7,6.9c0.6,0.7,1.1,1.4,1.4,2.3c0.3,0.9,0.5,1.8,0.4,2.7c-0.1,0.9-0.3,1.8-0.8,2.7c-0.4,0.8-1,1.5-1.8,2.1
			c-0.8,0.6-1.6,0.9-2.5,1.2s-1.8,0.2-2.8,0c-0.9-0.2-1.8-0.6-2.5-1.1c-0.8-0.5-1.4-1.2-1.9-2c-0.2-0.3-0.2-0.7-0.1-1
			c0.1-0.3,0.3-0.6,0.6-0.8c0.3-0.2,0.6-0.2,1-0.1s0.6,0.3,0.8,0.6c0.3,0.5,0.6,0.9,1.1,1.2c0.4,0.3,0.9,0.5,1.5,0.6
			C183.3,99.9,184.3,99.6,185.2,98.9z"/>
	</g>
	<g class="st0">
		<path class="st1" d="M32.3,131.4c-0.5,0-0.9-0.1-1.3-0.3c-0.4-0.2-0.8-0.4-1.1-0.7c-0.3-0.3-0.6-0.7-0.7-1.1
			c-0.2-0.4-0.3-0.8-0.3-1.3v-5c0-0.5,0.1-0.9,0.3-1.3c0.2-0.4,0.4-0.8,0.7-1.1c0.3-0.3,0.7-0.6,1.1-0.7c0.4-0.2,0.8-0.3,1.3-0.3
			h1.8v-4.5c0-0.2,0.1-0.4,0.2-0.6c0.1-0.1,0.3-0.2,0.6-0.2c0.2,0,0.4,0.1,0.5,0.2c0.2,0.1,0.2,0.3,0.2,0.6v15.5
			c0,0.2-0.1,0.4-0.2,0.6c-0.2,0.1-0.3,0.2-0.5,0.2H32.3z M32.3,121.2c-0.5,0-0.9,0.2-1.3,0.5s-0.5,0.8-0.5,1.3v5
			c0,0.5,0.2,0.9,0.5,1.3s0.8,0.5,1.3,0.5h1.8v-8.7H32.3z"/>
		<path class="st1" d="M41.1,131.3c-0.6-0.3-1.2-0.7-1.5-1.2c-0.4-0.6-0.6-1.2-0.6-1.9v-5.2c0-0.5,0.1-0.9,0.3-1.3
			c0.2-0.4,0.4-0.8,0.7-1.1c0.3-0.3,0.7-0.6,1.1-0.7c0.4-0.2,0.8-0.3,1.3-0.3s0.9,0.1,1.3,0.3c0.4,0.2,0.8,0.4,1.1,0.7
			c0.3,0.3,0.6,0.7,0.7,1.1c0.2,0.4,0.3,0.8,0.3,1.3v2.6c0,0.2-0.1,0.4-0.2,0.6c-0.1,0.1-0.3,0.2-0.6,0.2h-4.4v1.8
			c0,0.4,0.1,0.7,0.3,1c0.2,0.3,0.5,0.5,0.8,0.7c0.3,0.1,0.7,0.2,1.1,0.1c0.4-0.1,0.7-0.2,0.9-0.5c0.2-0.2,0.3-0.2,0.6-0.2
			s0.4,0.1,0.6,0.2c0.2,0.1,0.2,0.3,0.2,0.5c0,0.2-0.1,0.4-0.2,0.6c-0.5,0.5-1.1,0.8-1.7,0.9C42.4,131.6,41.7,131.5,41.1,131.3z
			 M42.4,121.1c-0.5,0-0.9,0.2-1.3,0.5s-0.5,0.8-0.5,1.3v1.8h3.7v-1.8c0-0.5-0.2-0.9-0.5-1.3C43.3,121.3,42.9,121.1,42.4,121.1z"/>
		<path class="st1" d="M55.7,131.3c-0.6-0.3-1.2-0.7-1.5-1.2c-0.4-0.6-0.6-1.2-0.6-1.9v-5.2c0-0.5,0.1-0.9,0.3-1.3
			c0.2-0.4,0.4-0.8,0.7-1.1c0.3-0.3,0.7-0.6,1.1-0.7c0.4-0.2,0.8-0.3,1.3-0.3s0.9,0.1,1.3,0.3c0.4,0.2,0.8,0.4,1.1,0.7
			c0.3,0.3,0.6,0.7,0.7,1.1c0.2,0.4,0.3,0.8,0.3,1.3v2.6c0,0.2-0.1,0.4-0.2,0.6c-0.1,0.1-0.3,0.2-0.6,0.2h-4.4v1.8
			c0,0.4,0.1,0.7,0.3,1c0.2,0.3,0.5,0.5,0.8,0.7c0.3,0.1,0.7,0.2,1.1,0.1c0.4-0.1,0.7-0.2,0.9-0.5c0.2-0.2,0.3-0.2,0.6-0.2
			s0.4,0.1,0.6,0.2c0.2,0.1,0.2,0.3,0.2,0.5c0,0.2-0.1,0.4-0.2,0.6c-0.5,0.5-1.1,0.8-1.7,0.9C57,131.6,56.3,131.5,55.7,131.3z
			 M57,121.1c-0.5,0-0.9,0.2-1.3,0.5s-0.5,0.8-0.5,1.3v1.8h3.7v-1.8c0-0.5-0.2-0.9-0.5-1.3C57.9,121.3,57.5,121.1,57,121.1z"/>
		<path class="st1" d="M67,129.5c0.4-0.4,0.6-0.8,0.5-1.3c0-0.5-0.3-0.9-0.7-1.3l-2.4-1.7c-0.4-0.3-0.7-0.6-0.9-1
			c-0.2-0.4-0.4-0.8-0.4-1.3c0-0.5,0-0.9,0.2-1.4s0.4-0.8,0.8-1.1c0.3-0.3,0.7-0.6,1.2-0.7c0.5-0.1,0.9-0.2,1.4-0.1
			c0.5,0.1,0.9,0.3,1.3,0.5s0.7,0.6,1,1c0.1,0.2,0.1,0.4,0.1,0.6c-0.1,0.2-0.2,0.4-0.4,0.5c-0.2,0.1-0.4,0.1-0.6,0.1
			c-0.2-0.1-0.4-0.2-0.5-0.4c-0.2-0.4-0.6-0.7-1.1-0.8c-0.5-0.1-0.9,0-1.3,0.4c-0.4,0.3-0.5,0.7-0.5,1.3s0.3,0.9,0.7,1.2l2.4,1.7
			c0.4,0.3,0.7,0.7,1,1.1c0.2,0.4,0.4,0.9,0.4,1.4c0,0.5,0,1-0.2,1.4c-0.2,0.4-0.5,0.8-0.8,1.2c-0.4,0.3-0.8,0.6-1.2,0.7
			c-0.5,0.1-0.9,0.2-1.4,0.1c-0.5-0.1-1-0.3-1.4-0.5s-0.7-0.6-1-1.1c-0.1-0.2-0.1-0.4-0.1-0.6c0.1-0.2,0.2-0.4,0.4-0.5
			s0.4-0.1,0.6-0.1c0.2,0.1,0.4,0.2,0.5,0.4c0.3,0.5,0.7,0.7,1.2,0.8C66.1,130,66.6,129.9,67,129.5z"/>
		<path class="st1" d="M71.2,121c-0.1-0.1-0.2-0.3-0.2-0.6c0-0.2,0.1-0.4,0.2-0.6c0.1-0.1,0.3-0.2,0.6-0.2H73v-4.5
			c0-0.2,0.1-0.4,0.2-0.6c0.1-0.1,0.3-0.2,0.6-0.2c0.2,0,0.4,0.1,0.6,0.2c0.1,0.1,0.2,0.3,0.2,0.6v4.5h1.8c0.2,0,0.4,0.1,0.6,0.2
			c0.1,0.1,0.2,0.3,0.2,0.6c0,0.2-0.1,0.4-0.2,0.6c-0.1,0.1-0.3,0.2-0.6,0.2h-1.8v6.9c0,0.5,0.2,0.9,0.5,1.3
			c0.4,0.4,0.8,0.5,1.3,0.5c0.2,0,0.4,0.1,0.6,0.2c0.1,0.1,0.2,0.3,0.2,0.6c0,0.2-0.1,0.4-0.2,0.6c-0.1,0.1-0.3,0.2-0.6,0.2
			c-0.5,0-0.9-0.1-1.3-0.3c-0.4-0.2-0.8-0.4-1.1-0.7c-0.3-0.3-0.6-0.7-0.7-1.1c-0.2-0.4-0.3-0.8-0.3-1.3v-6.9h-1.3
			C71.5,121.2,71.3,121.1,71.2,121z"/>
		<path class="st1" d="M81.7,131.2c-0.4-0.2-0.8-0.4-1.1-0.7c-0.3-0.3-0.6-0.7-0.7-1.1c-0.2-0.4-0.3-0.8-0.3-1.3v-7.7
			c0-0.2,0.1-0.4,0.2-0.6c0.1-0.1,0.3-0.2,0.6-0.2c0.2,0,0.4,0.1,0.6,0.2c0.1,0.1,0.2,0.3,0.2,0.6v7.7c0,0.5,0.2,0.9,0.5,1.3
			c0.4,0.4,0.8,0.5,1.3,0.5h1.8v-9.5c0-0.2,0.1-0.4,0.2-0.6c0.1-0.1,0.3-0.2,0.6-0.2s0.4,0.1,0.6,0.2c0.1,0.1,0.2,0.3,0.2,0.6v10.3
			c0,0.2-0.1,0.4-0.2,0.6c-0.1,0.1-0.3,0.2-0.6,0.2H83C82.5,131.4,82.1,131.4,81.7,131.2z"/>
		<path class="st1" d="M93.1,131.4c-0.5,0-0.9-0.1-1.3-0.3c-0.4-0.2-0.8-0.4-1.1-0.7c-0.3-0.3-0.6-0.7-0.7-1.1
			c-0.2-0.4-0.3-0.8-0.3-1.3v-5c0-0.5,0.1-0.9,0.3-1.3c0.2-0.4,0.4-0.8,0.7-1.1c0.3-0.3,0.7-0.6,1.1-0.7c0.4-0.2,0.8-0.3,1.3-0.3H95
			v-4.5c0-0.2,0.1-0.4,0.2-0.6c0.1-0.1,0.3-0.2,0.6-0.2c0.2,0,0.4,0.1,0.5,0.2c0.2,0.1,0.2,0.3,0.2,0.6v15.5c0,0.2-0.1,0.4-0.2,0.6
			c-0.2,0.1-0.3,0.2-0.5,0.2H93.1z M93.1,121.2c-0.5,0-0.9,0.2-1.3,0.5s-0.5,0.8-0.5,1.3v5c0,0.5,0.2,0.9,0.5,1.3s0.8,0.5,1.3,0.5
			H95v-8.7H93.1z"/>
		<path class="st1" d="M101,117.5c-0.3,0-0.5-0.1-0.7-0.3c-0.2-0.2-0.3-0.4-0.3-0.7s0.1-0.5,0.3-0.7c0.2-0.2,0.4-0.3,0.7-0.3
			c0.3,0,0.5,0.1,0.7,0.3c0.2,0.2,0.3,0.4,0.3,0.7s-0.1,0.5-0.3,0.7C101.5,117.4,101.2,117.5,101,117.5z M101.7,130.8
			c0,0.2-0.1,0.4-0.2,0.6c-0.1,0.1-0.3,0.2-0.6,0.2c-0.2,0-0.4-0.1-0.5-0.2c-0.2-0.1-0.2-0.3-0.2-0.6v-10.4c0-0.2,0.1-0.4,0.2-0.6
			c0.2-0.1,0.3-0.2,0.5-0.2c0.2,0,0.4,0.1,0.6,0.2c0.1,0.1,0.2,0.3,0.2,0.6V130.8z"/>
		<path class="st1" d="M108.5,131.5c-0.5,0-0.9-0.1-1.3-0.3c-0.4-0.2-0.8-0.4-1.1-0.7c-0.3-0.3-0.6-0.7-0.7-1.1
			c-0.2-0.4-0.3-0.8-0.3-1.3v-5.2c0-0.5,0.1-0.9,0.3-1.3c0.2-0.4,0.4-0.8,0.7-1.1c0.3-0.3,0.7-0.6,1.1-0.7c0.4-0.2,0.8-0.3,1.3-0.3
			s0.9,0.1,1.3,0.3c0.4,0.2,0.8,0.4,1.1,0.7c0.3,0.3,0.5,0.7,0.7,1.1c0.2,0.4,0.3,0.8,0.3,1.3v5.2c0,0.5-0.1,0.9-0.3,1.3
			c-0.2,0.4-0.4,0.8-0.7,1.1c-0.3,0.3-0.7,0.6-1.1,0.7C109.4,131.5,108.9,131.5,108.5,131.5z M108.5,121.1c-0.5,0-0.9,0.2-1.3,0.5
			s-0.5,0.8-0.5,1.3v5.2c0,0.5,0.2,0.9,0.5,1.3s0.8,0.5,1.3,0.5c0.5,0,0.9-0.2,1.3-0.5c0.4-0.4,0.5-0.8,0.5-1.3v-5.2
			c0-0.5-0.2-0.9-0.5-1.3C109.4,121.3,109,121.1,108.5,121.1z"/>
		<path class="st1" d="M124.4,124.7v-1.8c0-0.4-0.1-0.7-0.3-1c-0.2-0.3-0.5-0.5-0.8-0.7c-0.3-0.1-0.7-0.2-1-0.1
			c-0.3,0.1-0.6,0.2-0.9,0.5c-0.2,0.2-0.3,0.2-0.6,0.2s-0.4-0.1-0.6-0.2c-0.2-0.2-0.2-0.3-0.2-0.6c0-0.2,0.1-0.4,0.2-0.5
			c0.5-0.5,1.1-0.8,1.7-0.9c0.7-0.1,1.3-0.1,1.9,0.2c0.6,0.3,1.1,0.7,1.5,1.2c0.4,0.6,0.6,1.2,0.6,1.9v7.8c0,0.2-0.1,0.4-0.2,0.6
			s-0.3,0.2-0.5,0.2h-2.6c-0.5,0-0.9-0.1-1.3-0.3c-0.4-0.2-0.8-0.4-1.1-0.7c-0.3-0.3-0.6-0.7-0.7-1.1c-0.2-0.4-0.3-0.8-0.3-1.3
			s0.1-0.9,0.3-1.3c0.2-0.4,0.4-0.8,0.7-1.1c0.3-0.3,0.7-0.6,1.1-0.7c0.4-0.2,0.8-0.3,1.3-0.3H124.4z M120.7,128.1
			c0,0.5,0.2,0.9,0.5,1.3c0.4,0.4,0.8,0.5,1.3,0.5h1.8v-3.7h-1.8c-0.5,0-0.9,0.2-1.3,0.5C120.9,127.1,120.7,127.5,120.7,128.1z"/>
		<path class="st1" d="M131.1,131.3c-0.6-0.3-1.2-0.7-1.5-1.2c-0.4-0.6-0.6-1.2-0.6-1.9v-5.2c0-0.7,0.2-1.3,0.6-1.9
			c0.4-0.6,0.9-1,1.5-1.2c0.6-0.3,1.3-0.3,2-0.2c0.7,0.1,1.2,0.4,1.7,0.9c0.1,0.2,0.2,0.3,0.2,0.6c0,0.2-0.1,0.4-0.2,0.6
			c-0.2,0.1-0.3,0.2-0.6,0.2c-0.2,0-0.4-0.1-0.6-0.2c-0.3-0.3-0.6-0.5-0.9-0.5c-0.4-0.1-0.7,0-1.1,0.1c-0.3,0.1-0.6,0.4-0.8,0.7
			c-0.2,0.3-0.3,0.7-0.3,1v5.2c0,0.4,0.1,0.7,0.3,1c0.2,0.3,0.5,0.5,0.8,0.7c0.3,0.1,0.7,0.2,1.1,0.1c0.4-0.1,0.7-0.2,0.9-0.5
			c0.2-0.2,0.3-0.2,0.6-0.2c0.2,0,0.4,0.1,0.6,0.2c0.1,0.1,0.2,0.3,0.2,0.5c0,0.2-0.1,0.4-0.2,0.6c-0.5,0.5-1.1,0.8-1.7,0.9
			C132.4,131.6,131.8,131.5,131.1,131.3z"/>
		<path class="st1" d="M142.1,124.7v-1.8c0-0.4-0.1-0.7-0.3-1c-0.2-0.3-0.5-0.5-0.8-0.7c-0.3-0.1-0.7-0.2-1-0.1
			c-0.3,0.1-0.6,0.2-0.9,0.5c-0.2,0.2-0.3,0.2-0.6,0.2c-0.2,0-0.4-0.1-0.6-0.2c-0.2-0.2-0.2-0.3-0.2-0.6c0-0.2,0.1-0.4,0.2-0.5
			c0.5-0.5,1.1-0.8,1.7-0.9c0.7-0.1,1.3-0.1,1.9,0.2c0.6,0.3,1.1,0.7,1.5,1.2c0.4,0.6,0.6,1.2,0.6,1.9v7.8c0,0.2-0.1,0.4-0.2,0.6
			s-0.3,0.2-0.5,0.2h-2.6c-0.5,0-0.9-0.1-1.3-0.3c-0.4-0.2-0.8-0.4-1.1-0.7c-0.3-0.3-0.6-0.7-0.7-1.1c-0.2-0.4-0.3-0.8-0.3-1.3
			s0.1-0.9,0.3-1.3c0.2-0.4,0.4-0.8,0.7-1.1c0.3-0.3,0.7-0.6,1.1-0.7c0.4-0.2,0.8-0.3,1.3-0.3H142.1z M138.5,128.1
			c0,0.5,0.2,0.9,0.5,1.3c0.4,0.4,0.8,0.5,1.3,0.5h1.8v-3.7h-1.8c-0.5,0-0.9,0.2-1.3,0.5C138.6,127.1,138.5,127.5,138.5,128.1z"/>
		<path class="st1" d="M150.2,131.4c-0.5,0-0.9-0.1-1.3-0.3s-0.8-0.4-1.1-0.7c-0.3-0.3-0.6-0.7-0.7-1.1c-0.2-0.4-0.3-0.8-0.3-1.3v-5
			c0-0.5,0.1-0.9,0.3-1.3c0.2-0.4,0.4-0.8,0.7-1.1c0.3-0.3,0.7-0.6,1.1-0.7s0.8-0.3,1.3-0.3h1.8v-4.5c0-0.2,0.1-0.4,0.2-0.6
			c0.1-0.1,0.3-0.2,0.6-0.2c0.2,0,0.4,0.1,0.5,0.2c0.2,0.1,0.2,0.3,0.2,0.6v15.5c0,0.2-0.1,0.4-0.2,0.6s-0.3,0.2-0.5,0.2H150.2z
			 M150.2,121.2c-0.5,0-0.9,0.2-1.3,0.5s-0.5,0.8-0.5,1.3v5c0,0.5,0.2,0.9,0.5,1.3s0.8,0.5,1.3,0.5h1.8v-8.7H150.2z"/>
		<path class="st1" d="M159,131.3c-0.6-0.3-1.2-0.7-1.5-1.2c-0.4-0.6-0.6-1.2-0.6-1.9v-5.2c0-0.5,0.1-0.9,0.3-1.3
			c0.2-0.4,0.4-0.8,0.7-1.1c0.3-0.3,0.7-0.6,1.1-0.7c0.4-0.2,0.8-0.3,1.3-0.3c0.5,0,0.9,0.1,1.3,0.3c0.4,0.2,0.8,0.4,1.1,0.7
			c0.3,0.3,0.6,0.7,0.7,1.1c0.2,0.4,0.3,0.8,0.3,1.3v2.6c0,0.2-0.1,0.4-0.2,0.6c-0.1,0.1-0.3,0.2-0.6,0.2h-4.4v1.8
			c0,0.4,0.1,0.7,0.3,1c0.2,0.3,0.5,0.5,0.8,0.7c0.3,0.1,0.7,0.2,1.1,0.1c0.4-0.1,0.7-0.2,0.9-0.5c0.1-0.2,0.3-0.2,0.5-0.2
			c0.2,0,0.4,0.1,0.6,0.2c0.2,0.1,0.2,0.3,0.2,0.5c0,0.2-0.1,0.4-0.2,0.6c-0.5,0.5-1.1,0.8-1.7,0.9
			C160.3,131.6,159.7,131.5,159,131.3z M161.1,114.5c0.2-0.1,0.4-0.2,0.6-0.2c0.2,0,0.4,0.1,0.5,0.2c0.1,0.2,0.2,0.3,0.2,0.6
			c0,0.2-0.1,0.4-0.3,0.5l-2.6,2.3c-0.2,0.1-0.3,0.2-0.6,0.2c-0.2,0-0.4-0.1-0.5-0.2c-0.1-0.2-0.2-0.3-0.2-0.6
			c0-0.2,0.1-0.4,0.2-0.5L161.1,114.5z M160.3,121.1c-0.5,0-0.9,0.2-1.3,0.5s-0.5,0.8-0.5,1.3v1.8h3.7v-1.8c0-0.5-0.2-0.9-0.5-1.3
			C161.2,121.3,160.8,121.1,160.3,121.1z"/>
		<path class="st1" d="M168.4,121.2v9.5c0,0.2-0.1,0.4-0.2,0.6c-0.2,0.1-0.3,0.2-0.5,0.2c-0.2,0-0.4-0.1-0.6-0.2
			c-0.1-0.1-0.2-0.3-0.2-0.6v-10.3c0-0.2,0.1-0.4,0.2-0.6c0.1-0.1,0.3-0.2,0.6-0.2h7.8c0.5,0,0.9,0.1,1.3,0.3
			c0.4,0.2,0.8,0.4,1.1,0.7c0.3,0.3,0.5,0.7,0.7,1.1c0.2,0.4,0.3,0.8,0.3,1.3v7.7c0,0.2-0.1,0.4-0.2,0.6c-0.2,0.1-0.3,0.2-0.5,0.2
			c-0.2,0-0.4-0.1-0.6-0.2c-0.1-0.1-0.2-0.3-0.2-0.6V123c0-0.5-0.2-0.9-0.5-1.3s-0.8-0.5-1.3-0.5h-1.8v9.5c0,0.2-0.1,0.4-0.2,0.6
			c-0.2,0.1-0.3,0.2-0.5,0.2c-0.2,0-0.4-0.1-0.6-0.2c-0.1-0.1-0.2-0.3-0.2-0.6v-9.5H168.4z"/>
		<path class="st1" d="M183,117.5c-0.3,0-0.5-0.1-0.7-0.3c-0.2-0.2-0.3-0.4-0.3-0.7s0.1-0.5,0.3-0.7c0.2-0.2,0.4-0.3,0.7-0.3
			c0.3,0,0.5,0.1,0.7,0.3c0.2,0.2,0.3,0.4,0.3,0.7s-0.1,0.5-0.3,0.7C183.6,117.4,183.3,117.5,183,117.5z M183.8,130.8
			c0,0.2-0.1,0.4-0.2,0.6c-0.1,0.1-0.3,0.2-0.6,0.2c-0.2,0-0.4-0.1-0.5-0.2c-0.2-0.1-0.2-0.3-0.2-0.6v-10.4c0-0.2,0.1-0.4,0.2-0.6
			c0.2-0.1,0.3-0.2,0.5-0.2c0.2,0,0.4,0.1,0.6,0.2c0.1,0.1,0.2,0.3,0.2,0.6V130.8z"/>
		<path class="st1" d="M189.3,131.3c-0.6-0.3-1.2-0.7-1.5-1.2c-0.4-0.6-0.6-1.2-0.6-1.9v-5.2c0-0.7,0.2-1.3,0.6-1.9s0.9-1,1.5-1.2
			c0.6-0.3,1.3-0.3,2-0.2c0.7,0.1,1.2,0.4,1.7,0.9c0.1,0.2,0.2,0.3,0.2,0.6c0,0.2-0.1,0.4-0.2,0.6c-0.2,0.1-0.3,0.2-0.6,0.2
			c-0.2,0-0.4-0.1-0.6-0.2c-0.3-0.3-0.6-0.5-0.9-0.5c-0.4-0.1-0.7,0-1.1,0.1c-0.3,0.1-0.6,0.4-0.8,0.7c-0.2,0.3-0.3,0.7-0.3,1v5.2
			c0,0.4,0.1,0.7,0.3,1c0.2,0.3,0.5,0.5,0.8,0.7c0.3,0.1,0.7,0.2,1.1,0.1c0.4-0.1,0.7-0.2,0.9-0.5c0.2-0.2,0.3-0.2,0.6-0.2
			c0.2,0,0.4,0.1,0.6,0.2c0.1,0.1,0.2,0.3,0.2,0.5c0,0.2-0.1,0.4-0.2,0.6c-0.5,0.5-1.1,0.8-1.7,0.9
			C190.5,131.6,189.9,131.5,189.3,131.3z"/>
		<path class="st1" d="M199.1,131.5c-0.5,0-0.9-0.1-1.3-0.3c-0.4-0.2-0.8-0.4-1.1-0.7c-0.3-0.3-0.6-0.7-0.7-1.1
			c-0.2-0.4-0.3-0.8-0.3-1.3v-5.2c0-0.5,0.1-0.9,0.3-1.3c0.2-0.4,0.4-0.8,0.7-1.1c0.3-0.3,0.7-0.6,1.1-0.7c0.4-0.2,0.8-0.3,1.3-0.3
			c0.5,0,0.9,0.1,1.3,0.3c0.4,0.2,0.8,0.4,1.1,0.7c0.3,0.3,0.5,0.7,0.7,1.1c0.2,0.4,0.3,0.8,0.3,1.3v5.2c0,0.5-0.1,0.9-0.3,1.3
			c-0.2,0.4-0.4,0.8-0.7,1.1c-0.3,0.3-0.7,0.6-1.1,0.7C200,131.5,199.6,131.5,199.1,131.5z M199.1,121.1c-0.5,0-0.9,0.2-1.3,0.5
			s-0.5,0.8-0.5,1.3v5.2c0,0.5,0.2,0.9,0.5,1.3s0.8,0.5,1.3,0.5c0.5,0,0.9-0.2,1.3-0.5c0.4-0.4,0.5-0.8,0.5-1.3v-5.2
			c0-0.5-0.2-0.9-0.5-1.3C200,121.3,199.6,121.1,199.1,121.1z"/>
	</g>
	<g>
		<path class="st1" d="M244,157.6H3.5V3L244,13.2V157.6z M8,153.1h231.5V17.5L8,7.7V153.1z"/>
	</g>
</g>
</svg>
