<?xml version="1.0" encoding="utf-8"?>
<!-- Generator: Adobe Illustrator 22.0.1, SVG Export Plug-In . SVG Version: 6.00 Build 0)  -->
<svg version="1.1" id="Capa_1" xmlns="http://www.w3.org/2000/svg" xmlns:xlink="http://www.w3.org/1999/xlink" x="0px" y="0px"
	 viewBox="0 0 59 33.4" style="enable-background:new 0 0 59 33.4;" xml:space="preserve">
<style type="text/css">
	.st0{fill:#005DAD;}
</style>
<title>bedroom</title>
<desc>Created with Sketch.</desc>
<g>
	<g>
		<path class="st0" d="M52,23.5h2c0.6,0,1,0.4,1,1l0,0c0,0.6-0.4,1-1,1h-2c-0.6,0-1-0.4-1-1l0,0C51,23.9,51.4,23.5,52,23.5z"/>
		<path class="st0" d="M57,21.5v10H43v-10H57z M42,19.5c-0.6,0-1,0.4-1,1v12c0,0.6,0.4,1,1,1h16c0.6,0,1-0.4,1-1v-12
			c0-0.6-0.4-1-1-1H42L42,19.5z"/>
		<path class="st0" d="M55,0.8C54.9,0.3,54.5,0,54,0h-8c-0.5,0-0.9,0.3-1,0.8l-2,10c-0.1,0.6,0.3,1.2,1,1.2h5v5.5c0,0.6,0.4,1,1,1
			s1-0.4,1-1V12h5c0.6,0,1.1-0.6,1-1.2L55,0.8z M45.2,10l1.6-8h6.4l1.6,8L45.2,10z"/>
	</g>
	<g>
		<path class="st0" d="M33,18.5C33,18.5,33,18.5,33,18.5l0-4.6c0-3-2.4-5.4-5.4-5.4H8.4c-3,0-5.4,2.4-5.4,5.4v4.6c0,0,0,0,0,0
			c-1.7,0.1-3,1.5-3,3.2v5.6c0,1.8,1.4,3.2,3.2,3.2H5v2c0,0.6,0.4,1,1,1s1-0.4,1-1v-2h22v2c0,0.6,0.4,1,1,1s1-0.4,1-1v-2h1.8
			c1.8,0,3.2-1.4,3.2-3.2v-5.6C36,20,34.7,18.6,33,18.5z M5,13.9c0-1.9,1.5-3.4,3.4-3.4h19.2c1.9,0,3.4,1.5,3.4,3.4v4.6H5V13.9z
			 M34,27.3c0,0.7-0.5,1.2-1.2,1.2H3.2C2.5,28.5,2,28,2,27.3v-5.6c0-0.7,0.5-1.2,1.2-1.2h29.6c0.7,0,1.2,0.5,1.2,1.2V27.3z"/>
		<path class="st0" d="M21,14.5h6c0.6,0,1,0.4,1,1l0,0c0,0.6-0.4,1-1,1h-6c-0.6,0-1-0.4-1-1l0,0C20,14.9,20.4,14.5,21,14.5z"/>
		<path class="st0" d="M9,14.5h6c0.6,0,1,0.4,1,1l0,0c0,0.6-0.4,1-1,1H9c-0.6,0-1-0.4-1-1l0,0C8,14.9,8.4,14.5,9,14.5z"/>
	</g>
</g>
</svg>
