<?xml version="1.0" encoding="utf-8"?>
<!-- Generator: Adobe Illustrator 22.0.1, SVG Export Plug-In . SVG Version: 6.00 Build 0)  -->
<svg version="1.1" id="Capa_1" xmlns="http://www.w3.org/2000/svg" xmlns:xlink="http://www.w3.org/1999/xlink" x="0px" y="0px"
	 viewBox="0 0 89.1 60.9" style="enable-background:new 0 0 89.1 60.9;" xml:space="preserve">
<style type="text/css">
	.st0{fill:#005DAD;}
</style>
<path class="st0" d="M89.1,52.1v-9.9c0-0.1,0-0.2,0.1-0.2c0,0-0.1-0.1-0.1-0.2l-7.1-14.1c0-0.1-0.1-0.1-0.1-0.2V11.6
	c0-0.5-0.5-1-1-1H38.8c-0.5,0-1,0.5-1,1v15.9c0,0.1,0,0.2-0.1,0.2l-7.1,14.1c-0.1,0.2-0.1,0.3-0.1,0.5v18.6h2v-7.2
	c0-0.3,0.2-0.5,0.5-0.5h53.6c0.3,0,0.5,0.2,0.5,0.5v7.2h2v-7.7c0,0-0.1-0.1-0.1-0.1c-0.1-0.1-0.1-0.3,0-0.5
	C89,52.4,89.1,52.3,89.1,52.1z M39.8,13.1c0-0.3,0.2-0.5,0.5-0.5h39.2c0.3,0,0.5,0.2,0.5,0.5v14.1c0,0.3-0.2,0.5-0.5,0.5h-5.2
	c-0.3,0-0.5-0.2-0.5-0.5v-6.1c0-0.5-0.5-1-1-1H47c-0.5,0-1,0.5-1,1v6.1c0,0.3-0.2,0.5-0.5,0.5h-5.2c-0.3,0-0.5-0.2-0.5-0.5V13.1z
	 M71.8,22.6v8.6c0,0.3-0.2,0.5-0.5,0.5h-9.9c-0.3,0-0.5-0.2-0.5-0.5v-8.6c0-0.3,0.2-0.5,0.5-0.5h9.9C71.6,22.1,71.8,22.3,71.8,22.6z
	 M58.9,22.6v8.6c0,0.3-0.2,0.5-0.5,0.5h-9.9c-0.3,0-0.5-0.2-0.5-0.5v-8.6c0-0.3,0.2-0.5,0.5-0.5h9.9C58.7,22.1,58.9,22.3,58.9,22.6z
	 M33.5,40.5L38.8,30c0.1-0.2,0.3-0.3,0.4-0.3h6.2c0.3,0,0.5,0.2,0.5,0.5v2.5c0,0.5,0.5,1,1,1h25.8c0.5,0,1-0.5,1-1v-2.5
	c0-0.3,0.2-0.5,0.5-0.5h6.2c0.2,0,0.4,0.1,0.4,0.3l5.3,10.5c0.1,0.2,0.1,0.3,0,0.5s-0.3,0.2-0.4,0.2H34c-0.2,0-0.3-0.1-0.4-0.2
	S33.5,40.6,33.5,40.5z M87.2,50.6c0,0.3-0.2,0.5-0.5,0.5H33.1c-0.3,0-0.5-0.2-0.5-0.5v-6.9c0-0.3,0.2-0.5,0.5-0.5h53.6
	c0.3,0,0.5,0.2,0.5,0.5V50.6z"/>
<rect x="10" y="36.5" class="st0" width="4.3" height="2"/>
<rect x="10" y="27.1" class="st0" width="4.3" height="2"/>
<path class="st0" d="M22.6,60.9v-2.2c0-0.3,0.2-0.5,0.5-0.5h1.3V22.3H13.9c-0.3,0-0.5-0.2-0.5-0.5v-8.3c0-0.3,0.2-0.5,0.5-0.5h8
	L19.2,0h-14L2.6,12.9h8.2c0.3,0,0.5,0.2,0.5,0.5v8.3c0,0.3-0.2,0.5-0.5,0.5H0v35.9h1.3c0.3,0,0.5,0.2,0.5,0.5v2.3h2v-2.2
	c0-0.3,0.2-0.5,0.5-0.5h15.8c0.3,0,0.5,0.2,0.5,0.5v2.2H22.6z M5.6,10.9c-0.1,0-0.3-0.1-0.4-0.2c-0.1-0.1-0.1-0.3-0.1-0.4l1.6-7.9
	C6.8,2.2,7,2,7.2,2h9.9c0.2,0,0.4,0.2,0.5,0.4l1.6,7.9c0,0.1,0,0.3-0.1,0.4c-0.1,0.1-0.2,0.2-0.4,0.2H5.6z M2,24.8
	c0-0.3,0.2-0.5,0.5-0.5h19.3c0.3,0,0.5,0.2,0.5,0.5v6.6c0,0.3-0.2,0.5-0.5,0.5H2.5c-0.3,0-0.5-0.2-0.5-0.5V24.8z M2,34.4
	c0-0.3,0.2-0.5,0.5-0.5h19.3c0.3,0,0.5,0.2,0.5,0.5v6.5c0,0.3-0.2,0.5-0.5,0.5H2.5c-0.3,0-0.5-0.2-0.5-0.5V34.4z M2.5,56.2
	C2.2,56.2,2,56,2,55.7V43.9c0-0.3,0.2-0.5,0.5-0.5h19.3c0.3,0,0.5,0.2,0.5,0.5v11.8c0,0.3-0.2,0.5-0.5,0.5H2.5z"/>
<rect x="10" y="46.5" class="st0" width="4.3" height="2"/>
</svg>
