<?xml version="1.0" encoding="utf-8"?>
<!-- Generator: Adobe Illustrator 22.0.1, SVG Export Plug-In . SVG Version: 6.00 Build 0)  -->
<svg version="1.1" id="Capa_1" xmlns="http://www.w3.org/2000/svg" xmlns:xlink="http://www.w3.org/1999/xlink" x="0px" y="0px"
	 viewBox="0 0 60 60" style="enable-background:new 0 0 60 60;" xml:space="preserve">
<style type="text/css">
	.st0{fill:#005DAD;}
</style>
<g>
	<path class="st0" d="M59.1,36.5c-0.4-0.5-0.9-0.9-1.5-1.1c-0.3-5.2-4.7-9.4-10-9.4H34.2c-1.5,0-2.9,0.3-4.2,0.9
		c-1.3-0.6-2.8-0.9-4.2-0.9H13.1c-5.2,0-9.5,4-10,9.1c-0.9,0.2-1.7,0.7-2.3,1.5c-0.8,1-1,2.3-0.7,3.5l2.3,11.4l0,0.1
		C3,53,4.4,54,5.9,54H6v6h4.7l2-6h35.6l2,6H55v-6c1.5-0.1,2.8-1.2,3.2-2.6l1.7-11.5C60.2,38.6,59.9,37.4,59.1,36.5z M47.7,28
		c4.1,0,7.5,3.1,7.9,7c-0.1,0-0.3,0-0.4,0.1c-0.2,0-0.3,0-0.5,0.1c-0.2,0-0.3,0.1-0.5,0.2c-0.2,0-0.3,0.1-0.5,0.2
		c-0.2,0.1-0.3,0.2-0.5,0.3c-0.1,0.1-0.3,0.1-0.4,0.2c-0.2,0.1-0.3,0.2-0.5,0.4c-0.1,0.1-0.2,0.2-0.3,0.3c-0.2,0.2-0.3,0.3-0.4,0.5
		c-0.1,0.1-0.2,0.2-0.2,0.3c-0.2,0.2-0.3,0.4-0.4,0.7c0,0.1-0.1,0.1-0.1,0.2c-0.1,0.3-0.3,0.6-0.3,0.9c0,0,0,0,0,0
		c-0.1,0.3-0.2,0.7-0.2,1L50.1,44H31V28.7c1-0.4,2.1-0.7,3.2-0.7H47.7z M13.1,28h12.7c1.1,0,2.2,0.2,3.2,0.7V44H10.2l-0.6-4.2
		c-0.1-0.3-0.1-0.6-0.2-0.9c0-0.1-0.1-0.2-0.1-0.3C9.2,38.4,9.1,38.2,9,38c-0.1-0.1-0.1-0.2-0.2-0.3c-0.1-0.2-0.2-0.3-0.3-0.5
		c-0.1-0.1-0.2-0.2-0.2-0.3c-0.1-0.1-0.3-0.3-0.4-0.4c-0.1-0.1-0.2-0.2-0.3-0.3c-0.2-0.1-0.3-0.2-0.5-0.3c-0.1-0.1-0.2-0.1-0.3-0.2
		c-0.2-0.1-0.4-0.2-0.6-0.3c-0.1,0-0.2-0.1-0.3-0.1c-0.3-0.1-0.6-0.2-0.9-0.3C5.5,31.1,8.9,28,13.1,28z M5.9,52
		c-0.7,0-1.3-0.4-1.5-1L2.1,39.6c-0.2-0.6,0-1.3,0.3-1.8c0.4-0.5,1-0.8,1.6-0.8c1.8,0,3.3,1.3,3.6,3.1L8.9,52H5.9L5.9,52z M9.3,58H8
		v-4h1.1h1.5L9.3,58z M13.4,52H11l-0.5-6H50l-0.3,6h-2.1H13.4z M53,58h-1.3l-1.3-4h1.2H53V58z M58,39.5l-1.7,11.4
		C56,51.5,55.4,52,54.7,52h-2.9l0.6-11.7c0.1-1.9,1.7-3.3,3.6-3.3c0.6,0,1.2,0.3,1.6,0.8C57.9,38.2,58.1,38.8,58,39.5z"/>
	<path class="st0" d="M14.3,39.7c0.2,0.2,0.4,0.3,0.7,0.3s0.5-0.1,0.7-0.3l0.9-0.9c0.4,0.2,0.9,0.3,1.4,0.3s1-0.1,1.4-0.3l0.9,0.9
		c0.2,0.2,0.5,0.3,0.7,0.3s0.5-0.1,0.7-0.3c0.4-0.4,0.4-1,0-1.4l-0.9-0.9c0.2-0.4,0.3-0.9,0.3-1.4s-0.1-1-0.3-1.4l0.9-0.9
		c0.4-0.4,0.4-1,0-1.4s-1-0.4-1.4,0l-0.9,0.9c-0.9-0.4-1.9-0.4-2.7,0l-0.9-0.9c-0.4-0.4-1-0.4-1.4,0s-0.4,1,0,1.4l0.9,0.9
		c-0.4,0.9-0.4,1.9,0,2.8l-0.9,0.9C13.9,38.7,13.9,39.3,14.3,39.7z M18.8,35.2c0.2,0.2,0.3,0.5,0.3,0.8s-0.1,0.6-0.3,0.8
		c-0.4,0.4-1.2,0.4-1.6,0c-0.4-0.4-0.4-1.2,0-1.6c0.2-0.2,0.5-0.3,0.8-0.3S18.6,35,18.8,35.2z"/>
	<path class="st0" d="M38.3,39.7c0.2,0.2,0.5,0.3,0.7,0.3s0.5-0.1,0.7-0.3l0.9-0.9c0.4,0.2,0.9,0.3,1.4,0.3s1-0.1,1.4-0.3l0.9,0.9
		c0.2,0.2,0.5,0.3,0.7,0.3s0.5-0.1,0.7-0.3c0.4-0.4,0.4-1,0-1.4l-0.9-0.9c0.2-0.4,0.3-0.9,0.3-1.4s-0.1-1-0.3-1.4l0.9-0.9
		c0.4-0.4,0.4-1,0-1.4s-1-0.4-1.4,0l-0.9,0.9c-0.9-0.4-1.9-0.4-2.7,0l-0.9-0.9c-0.4-0.4-1-0.4-1.4,0s-0.4,1,0,1.4l0.9,0.9
		c-0.4,0.9-0.4,1.9,0,2.8l-0.9,0.9C37.9,38.7,37.9,39.3,38.3,39.7z M42.8,35.2c0.2,0.2,0.3,0.5,0.3,0.8s-0.1,0.6-0.3,0.8
		c-0.4,0.4-1.2,0.4-1.6,0c-0.4-0.4-0.4-1.2,0-1.6c0.2-0.2,0.5-0.3,0.8-0.3S42.6,35,42.8,35.2z"/>
	<path class="st0" d="M22,21h5v-3h23v3h5v-3h3v-6h-1h-2V2h-4V0h-6v3h-2.8c-0.4,0-0.8,0.2-1.1,0.6L35.5,12c0,0,0,0,0,0H20h-1v6h3V21z
		 M25,19h-1v-1h1V19z M53,19h-1v-1h1V19z M53,4v8h-2V4H53z M47,2h2v10h-2V2z M45,12h-3.1L45,7.3V12z M42.5,5h1.6l-4.7,7h-1.6L42.5,5
		z M21,16v-2h15.6h3.3H45h4h2h4h1v2h-1h-5H27h-5H21z"/>
</g>
</svg>
